ISO-10303-21;
HEADER;
FILE_DESCRIPTION(('FreeCAD Model'),'2;1');
FILE_NAME('Open CASCADE Shape Model','2026-08-10T23:23:09',('FreeCAD'),(
    'FreeCAD'),'Open CASCADE STEP processor 7.8','FreeCAD','Unknown');
FILE_SCHEMA(('AUTOMOTIVE_DESIGN { 1 0 10303 214 1 1 1 1 }'));
ENDSEC;
DATA;
#1 = APPLICATION_PROTOCOL_DEFINITION('international standard',
  'automotive_design',2000,#2);
#2 = APPLICATION_CONTEXT(
  'core data for automotive mechanical design processes');
#3 = SHAPE_DEFINITION_REPRESENTATION(#4,#10);
#4 = PRODUCT_DEFINITION_SHAPE('','',#5);
#5 = PRODUCT_DEFINITION('design','',#6,#9);
#6 = PRODUCT_DEFINITION_FORMATION('','',#7);
#7 = PRODUCT('Open CASCADE STEP translator 7.8 10',
  'Open CASCADE STEP translator 7.8 10','',(#8));
#8 = PRODUCT_CONTEXT('',#2,'mechanical');
#9 = PRODUCT_DEFINITION_CONTEXT('part definition',#2,'design');
#10 = SHAPE_REPRESENTATION('',(#11,#15,#68,#218,#368,#518,#571,#624,#677
    ,#730),#1017);
#11 = AXIS2_PLACEMENT_3D('',#12,#13,#14);
#12 = CARTESIAN_POINT('',(0.,0.,0.));
#13 = DIRECTION('',(0.,0.,1.));
#14 = DIRECTION('',(1.,0.,-0.));
#15 = MANIFOLD_SOLID_BREP('',#16);
#16 = CLOSED_SHELL('',(#17,#50,#59));
#17 = ADVANCED_FACE('',(#18),#45,.T.);
#18 = FACE_BOUND('',#19,.T.);
#19 = EDGE_LOOP('',(#20,#29,#37,#44));
#20 = ORIENTED_EDGE('',*,*,#21,.F.);
#21 = EDGE_CURVE('',#22,#22,#24,.T.);
#22 = VERTEX_POINT('',#23);
#23 = CARTESIAN_POINT('',(3.01980662698E-14,27.,10.2007826));
#24 = CIRCLE('',#25,27.);
#25 = AXIS2_PLACEMENT_3D('',#26,#27,#28);
#26 = CARTESIAN_POINT('',(3.19744231092E-14,0.,10.2007826));
#27 = DIRECTION('',(0.,-0.,1.));
#28 = DIRECTION('',(0.,1.,0.));
#29 = ORIENTED_EDGE('',*,*,#30,.F.);
#30 = EDGE_CURVE('',#31,#22,#33,.T.);
#31 = VERTEX_POINT('',#32);
#32 = CARTESIAN_POINT('',(3.01980662698E-14,27.,2.2007826));
#33 = LINE('',#34,#35);
#34 = CARTESIAN_POINT('',(3.907985046681E-14,27.,2.2007826));
#35 = VECTOR('',#36,1.);
#36 = DIRECTION('',(0.,0.,1.));
#37 = ORIENTED_EDGE('',*,*,#38,.T.);
#38 = EDGE_CURVE('',#31,#31,#39,.T.);
#39 = CIRCLE('',#40,27.);
#40 = AXIS2_PLACEMENT_3D('',#41,#42,#43);
#41 = CARTESIAN_POINT('',(3.19744231092E-14,0.,2.2007826));
#42 = DIRECTION('',(0.,-0.,1.));
#43 = DIRECTION('',(0.,1.,0.));
#44 = ORIENTED_EDGE('',*,*,#30,.T.);
#45 = CYLINDRICAL_SURFACE('',#46,27.);
#46 = AXIS2_PLACEMENT_3D('',#47,#48,#49);
#47 = CARTESIAN_POINT('',(3.19744231092E-14,0.,2.2007826));
#48 = DIRECTION('',(0.,0.,1.));
#49 = DIRECTION('',(0.,1.,0.));
#50 = ADVANCED_FACE('',(#51),#54,.T.);
#51 = FACE_BOUND('',#52,.T.);
#52 = EDGE_LOOP('',(#53));
#53 = ORIENTED_EDGE('',*,*,#21,.T.);
#54 = PLANE('',#55);
#55 = AXIS2_PLACEMENT_3D('',#56,#57,#58);
#56 = CARTESIAN_POINT('',(3.19744231092E-14,0.,10.2007826));
#57 = DIRECTION('',(0.,0.,1.));
#58 = DIRECTION('',(0.,1.,0.));
#59 = ADVANCED_FACE('',(#60),#63,.F.);
#60 = FACE_BOUND('',#61,.T.);
#61 = EDGE_LOOP('',(#62));
#62 = ORIENTED_EDGE('',*,*,#38,.F.);
#63 = PLANE('',#64);
#64 = AXIS2_PLACEMENT_3D('',#65,#66,#67);
#65 = CARTESIAN_POINT('',(3.19744231092E-14,0.,2.2007826));
#66 = DIRECTION('',(0.,0.,1.));
#67 = DIRECTION('',(0.,1.,0.));
#68 = MANIFOLD_SOLID_BREP('',#69);
#69 = CLOSED_SHELL('',(#70,#110,#150,#172,#194,#206));
#70 = ADVANCED_FACE('',(#71),#105,.F.);
#71 = FACE_BOUND('',#72,.F.);
#72 = EDGE_LOOP('',(#73,#83,#91,#99));
#73 = ORIENTED_EDGE('',*,*,#74,.F.);
#74 = EDGE_CURVE('',#75,#77,#79,.T.);
#75 = VERTEX_POINT('',#76);
#76 = CARTESIAN_POINT('',(29.4988047,-55.7486451,10.2));
#77 = VERTEX_POINT('',#78);
#78 = CARTESIAN_POINT('',(29.4988047,-55.7486451,32.639782));
#79 = LINE('',#80,#81);
#80 = CARTESIAN_POINT('',(29.4988047,-55.7486451,10.2));
#81 = VECTOR('',#82,1.);
#82 = DIRECTION('',(0.,0.,1.));
#83 = ORIENTED_EDGE('',*,*,#84,.T.);
#84 = EDGE_CURVE('',#75,#85,#87,.T.);
#85 = VERTEX_POINT('',#86);
#86 = CARTESIAN_POINT('',(-29.5011953,-55.7486451,10.2));
#87 = LINE('',#88,#89);
#88 = CARTESIAN_POINT('',(29.4988047,-55.7486451,10.2));
#89 = VECTOR('',#90,1.);
#90 = DIRECTION('',(-1.,0.,0.));
#91 = ORIENTED_EDGE('',*,*,#92,.T.);
#92 = EDGE_CURVE('',#85,#93,#95,.T.);
#93 = VERTEX_POINT('',#94);
#94 = CARTESIAN_POINT('',(-29.5011953,-55.7486451,32.639782));
#95 = LINE('',#96,#97);
#96 = CARTESIAN_POINT('',(-29.5011953,-55.7486451,10.2));
#97 = VECTOR('',#98,1.);
#98 = DIRECTION('',(0.,0.,1.));
#99 = ORIENTED_EDGE('',*,*,#100,.F.);
#100 = EDGE_CURVE('',#77,#93,#101,.T.);
#101 = LINE('',#102,#103);
#102 = CARTESIAN_POINT('',(29.4988047,-55.7486451,32.639782));
#103 = VECTOR('',#104,1.);
#104 = DIRECTION('',(-1.,0.,0.));
#105 = PLANE('',#106);
#106 = AXIS2_PLACEMENT_3D('',#107,#108,#109);
#107 = CARTESIAN_POINT('',(29.4988047,-55.7486451,10.2));
#108 = DIRECTION('',(0.,1.,0.));
#109 = DIRECTION('',(0.,0.,1.));
#110 = ADVANCED_FACE('',(#111),#145,.T.);
#111 = FACE_BOUND('',#112,.T.);
#112 = EDGE_LOOP('',(#113,#123,#131,#139));
#113 = ORIENTED_EDGE('',*,*,#114,.F.);
#114 = EDGE_CURVE('',#115,#117,#119,.T.);
#115 = VERTEX_POINT('',#116);
#116 = CARTESIAN_POINT('',(29.4988047,55.2513549,10.2));
#117 = VERTEX_POINT('',#118);
#118 = CARTESIAN_POINT('',(29.4988047,55.2513549,32.639782));
#119 = LINE('',#120,#121);
#120 = CARTESIAN_POINT('',(29.4988047,55.2513549,10.2));
#121 = VECTOR('',#122,1.);
#122 = DIRECTION('',(0.,0.,1.));
#123 = ORIENTED_EDGE('',*,*,#124,.T.);
#124 = EDGE_CURVE('',#115,#125,#127,.T.);
#125 = VERTEX_POINT('',#126);
#126 = CARTESIAN_POINT('',(-29.5011953,55.2513549,10.2));
#127 = LINE('',#128,#129);
#128 = CARTESIAN_POINT('',(29.4988047,55.2513549,10.2));
#129 = VECTOR('',#130,1.);
#130 = DIRECTION('',(-1.,0.,0.));
#131 = ORIENTED_EDGE('',*,*,#132,.T.);
#132 = EDGE_CURVE('',#125,#133,#135,.T.);
#133 = VERTEX_POINT('',#134);
#134 = CARTESIAN_POINT('',(-29.5011953,55.2513549,32.639782));
#135 = LINE('',#136,#137);
#136 = CARTESIAN_POINT('',(-29.5011953,55.2513549,10.2));
#137 = VECTOR('',#138,1.);
#138 = DIRECTION('',(0.,0.,1.));
#139 = ORIENTED_EDGE('',*,*,#140,.F.);
#140 = EDGE_CURVE('',#117,#133,#141,.T.);
#141 = LINE('',#142,#143);
#142 = CARTESIAN_POINT('',(29.4988047,55.2513549,32.639782));
#143 = VECTOR('',#144,1.);
#144 = DIRECTION('',(-1.,0.,0.));
#145 = PLANE('',#146);
#146 = AXIS2_PLACEMENT_3D('',#147,#148,#149);
#147 = CARTESIAN_POINT('',(29.4988047,55.2513549,10.2));
#148 = DIRECTION('',(0.,1.,0.));
#149 = DIRECTION('',(0.,0.,1.));
#150 = ADVANCED_FACE('',(#151),#167,.F.);
#151 = FACE_BOUND('',#152,.F.);
#152 = EDGE_LOOP('',(#153,#159,#160,#166));
#153 = ORIENTED_EDGE('',*,*,#154,.F.);
#154 = EDGE_CURVE('',#75,#115,#155,.T.);
#155 = LINE('',#156,#157);
#156 = CARTESIAN_POINT('',(29.4988047,-55.7486451,10.2));
#157 = VECTOR('',#158,1.);
#158 = DIRECTION('',(0.,1.,0.));
#159 = ORIENTED_EDGE('',*,*,#74,.T.);
#160 = ORIENTED_EDGE('',*,*,#161,.T.);
#161 = EDGE_CURVE('',#77,#117,#162,.T.);
#162 = LINE('',#163,#164);
#163 = CARTESIAN_POINT('',(29.4988047,-55.7486451,32.639782));
#164 = VECTOR('',#165,1.);
#165 = DIRECTION('',(0.,1.,0.));
#166 = ORIENTED_EDGE('',*,*,#114,.F.);
#167 = PLANE('',#168);
#168 = AXIS2_PLACEMENT_3D('',#169,#170,#171);
#169 = CARTESIAN_POINT('',(29.4988047,-55.7486451,10.2));
#170 = DIRECTION('',(-1.,0.,0.));
#171 = DIRECTION('',(0.,0.,1.));
#172 = ADVANCED_FACE('',(#173),#189,.T.);
#173 = FACE_BOUND('',#174,.T.);
#174 = EDGE_LOOP('',(#175,#181,#182,#188));
#175 = ORIENTED_EDGE('',*,*,#176,.F.);
#176 = EDGE_CURVE('',#85,#125,#177,.T.);
#177 = LINE('',#178,#179);
#178 = CARTESIAN_POINT('',(-29.5011953,-55.7486451,10.2));
#179 = VECTOR('',#180,1.);
#180 = DIRECTION('',(0.,1.,0.));
#181 = ORIENTED_EDGE('',*,*,#92,.T.);
#182 = ORIENTED_EDGE('',*,*,#183,.T.);
#183 = EDGE_CURVE('',#93,#133,#184,.T.);
#184 = LINE('',#185,#186);
#185 = CARTESIAN_POINT('',(-29.5011953,-55.7486451,32.639782));
#186 = VECTOR('',#187,1.);
#187 = DIRECTION('',(0.,1.,0.));
#188 = ORIENTED_EDGE('',*,*,#132,.F.);
#189 = PLANE('',#190);
#190 = AXIS2_PLACEMENT_3D('',#191,#192,#193);
#191 = CARTESIAN_POINT('',(-29.5011953,-55.7486451,10.2));
#192 = DIRECTION('',(-1.,0.,0.));
#193 = DIRECTION('',(0.,0.,1.));
#194 = ADVANCED_FACE('',(#195),#201,.F.);
#195 = FACE_BOUND('',#196,.F.);
#196 = EDGE_LOOP('',(#197,#198,#199,#200));
#197 = ORIENTED_EDGE('',*,*,#84,.F.);
#198 = ORIENTED_EDGE('',*,*,#154,.T.);
#199 = ORIENTED_EDGE('',*,*,#124,.T.);
#200 = ORIENTED_EDGE('',*,*,#176,.F.);
#201 = PLANE('',#202);
#202 = AXIS2_PLACEMENT_3D('',#203,#204,#205);
#203 = CARTESIAN_POINT('',(29.4988047,-55.7486451,10.2));
#204 = DIRECTION('',(0.,0.,1.));
#205 = DIRECTION('',(0.,1.,0.));
#206 = ADVANCED_FACE('',(#207),#213,.T.);
#207 = FACE_BOUND('',#208,.T.);
#208 = EDGE_LOOP('',(#209,#210,#211,#212));
#209 = ORIENTED_EDGE('',*,*,#100,.F.);
#210 = ORIENTED_EDGE('',*,*,#161,.T.);
#211 = ORIENTED_EDGE('',*,*,#140,.T.);
#212 = ORIENTED_EDGE('',*,*,#183,.F.);
#213 = PLANE('',#214);
#214 = AXIS2_PLACEMENT_3D('',#215,#216,#217);
#215 = CARTESIAN_POINT('',(29.4988047,-55.7486451,32.639782));
#216 = DIRECTION('',(0.,0.,1.));
#217 = DIRECTION('',(0.,1.,0.));
#218 = MANIFOLD_SOLID_BREP('',#219);
#219 = CLOSED_SHELL('',(#220,#260,#300,#322,#344,#356));
#220 = ADVANCED_FACE('',(#221),#255,.F.);
#221 = FACE_BOUND('',#222,.F.);
#222 = EDGE_LOOP('',(#223,#233,#241,#249));
#223 = ORIENTED_EDGE('',*,*,#224,.F.);
#224 = EDGE_CURVE('',#225,#227,#229,.T.);
#225 = VERTEX_POINT('',#226);
#226 = CARTESIAN_POINT('',(29.4988047,-63.9986451,32.639782));
#227 = VERTEX_POINT('',#228);
#228 = CARTESIAN_POINT('',(29.4988047,-63.9986451,92.639782));
#229 = LINE('',#230,#231);
#230 = CARTESIAN_POINT('',(29.4988047,-63.9986451,32.639782));
#231 = VECTOR('',#232,1.);
#232 = DIRECTION('',(0.,0.,1.));
#233 = ORIENTED_EDGE('',*,*,#234,.T.);
#234 = EDGE_CURVE('',#225,#235,#237,.T.);
#235 = VERTEX_POINT('',#236);
#236 = CARTESIAN_POINT('',(-29.5011953,-63.9986451,32.639782));
#237 = LINE('',#238,#239);
#238 = CARTESIAN_POINT('',(29.4988047,-63.9986451,32.639782));
#239 = VECTOR('',#240,1.);
#240 = DIRECTION('',(-1.,0.,0.));
#241 = ORIENTED_EDGE('',*,*,#242,.T.);
#242 = EDGE_CURVE('',#235,#243,#245,.T.);
#243 = VERTEX_POINT('',#244);
#244 = CARTESIAN_POINT('',(-29.5011953,-63.9986451,92.639782));
#245 = LINE('',#246,#247);
#246 = CARTESIAN_POINT('',(-29.5011953,-63.9986451,32.639782));
#247 = VECTOR('',#248,1.);
#248 = DIRECTION('',(0.,0.,1.));
#249 = ORIENTED_EDGE('',*,*,#250,.F.);
#250 = EDGE_CURVE('',#227,#243,#251,.T.);
#251 = LINE('',#252,#253);
#252 = CARTESIAN_POINT('',(29.4988047,-63.9986451,92.639782));
#253 = VECTOR('',#254,1.);
#254 = DIRECTION('',(-1.,0.,0.));
#255 = PLANE('',#256);
#256 = AXIS2_PLACEMENT_3D('',#257,#258,#259);
#257 = CARTESIAN_POINT('',(29.4988047,-63.9986451,32.639782));
#258 = DIRECTION('',(0.,1.,0.));
#259 = DIRECTION('',(0.,0.,1.));
#260 = ADVANCED_FACE('',(#261),#295,.T.);
#261 = FACE_BOUND('',#262,.T.);
#262 = EDGE_LOOP('',(#263,#273,#281,#289));
#263 = ORIENTED_EDGE('',*,*,#264,.F.);
#264 = EDGE_CURVE('',#265,#267,#269,.T.);
#265 = VERTEX_POINT('',#266);
#266 = CARTESIAN_POINT('',(29.4988047,-42.6986451,32.639782));
#267 = VERTEX_POINT('',#268);
#268 = CARTESIAN_POINT('',(29.4988047,-42.6986451,92.639782));
#269 = LINE('',#270,#271);
#270 = CARTESIAN_POINT('',(29.4988047,-42.6986451,32.639782));
#271 = VECTOR('',#272,1.);
#272 = DIRECTION('',(0.,0.,1.));
#273 = ORIENTED_EDGE('',*,*,#274,.T.);
#274 = EDGE_CURVE('',#265,#275,#277,.T.);
#275 = VERTEX_POINT('',#276);
#276 = CARTESIAN_POINT('',(-29.5011953,-42.6986451,32.639782));
#277 = LINE('',#278,#279);
#278 = CARTESIAN_POINT('',(29.4988047,-42.6986451,32.639782));
#279 = VECTOR('',#280,1.);
#280 = DIRECTION('',(-1.,0.,0.));
#281 = ORIENTED_EDGE('',*,*,#282,.T.);
#282 = EDGE_CURVE('',#275,#283,#285,.T.);
#283 = VERTEX_POINT('',#284);
#284 = CARTESIAN_POINT('',(-29.5011953,-42.6986451,92.639782));
#285 = LINE('',#286,#287);
#286 = CARTESIAN_POINT('',(-29.5011953,-42.6986451,32.639782));
#287 = VECTOR('',#288,1.);
#288 = DIRECTION('',(0.,0.,1.));
#289 = ORIENTED_EDGE('',*,*,#290,.F.);
#290 = EDGE_CURVE('',#267,#283,#291,.T.);
#291 = LINE('',#292,#293);
#292 = CARTESIAN_POINT('',(29.4988047,-42.6986451,92.639782));
#293 = VECTOR('',#294,1.);
#294 = DIRECTION('',(-1.,0.,0.));
#295 = PLANE('',#296);
#296 = AXIS2_PLACEMENT_3D('',#297,#298,#299);
#297 = CARTESIAN_POINT('',(29.4988047,-42.6986451,32.639782));
#298 = DIRECTION('',(0.,1.,0.));
#299 = DIRECTION('',(0.,0.,1.));
#300 = ADVANCED_FACE('',(#301),#317,.F.);
#301 = FACE_BOUND('',#302,.F.);
#302 = EDGE_LOOP('',(#303,#309,#310,#316));
#303 = ORIENTED_EDGE('',*,*,#304,.F.);
#304 = EDGE_CURVE('',#225,#265,#305,.T.);
#305 = LINE('',#306,#307);
#306 = CARTESIAN_POINT('',(29.4988047,-63.9986451,32.639782));
#307 = VECTOR('',#308,1.);
#308 = DIRECTION('',(0.,1.,0.));
#309 = ORIENTED_EDGE('',*,*,#224,.T.);
#310 = ORIENTED_EDGE('',*,*,#311,.T.);
#311 = EDGE_CURVE('',#227,#267,#312,.T.);
#312 = LINE('',#313,#314);
#313 = CARTESIAN_POINT('',(29.4988047,-63.9986451,92.639782));
#314 = VECTOR('',#315,1.);
#315 = DIRECTION('',(0.,1.,0.));
#316 = ORIENTED_EDGE('',*,*,#264,.F.);
#317 = PLANE('',#318);
#318 = AXIS2_PLACEMENT_3D('',#319,#320,#321);
#319 = CARTESIAN_POINT('',(29.4988047,-63.9986451,32.639782));
#320 = DIRECTION('',(-1.,0.,0.));
#321 = DIRECTION('',(0.,0.,1.));
#322 = ADVANCED_FACE('',(#323),#339,.T.);
#323 = FACE_BOUND('',#324,.T.);
#324 = EDGE_LOOP('',(#325,#331,#332,#338));
#325 = ORIENTED_EDGE('',*,*,#326,.F.);
#326 = EDGE_CURVE('',#235,#275,#327,.T.);
#327 = LINE('',#328,#329);
#328 = CARTESIAN_POINT('',(-29.5011953,-63.9986451,32.639782));
#329 = VECTOR('',#330,1.);
#330 = DIRECTION('',(0.,1.,0.));
#331 = ORIENTED_EDGE('',*,*,#242,.T.);
#332 = ORIENTED_EDGE('',*,*,#333,.T.);
#333 = EDGE_CURVE('',#243,#283,#334,.T.);
#334 = LINE('',#335,#336);
#335 = CARTESIAN_POINT('',(-29.5011953,-63.9986451,92.639782));
#336 = VECTOR('',#337,1.);
#337 = DIRECTION('',(0.,1.,0.));
#338 = ORIENTED_EDGE('',*,*,#282,.F.);
#339 = PLANE('',#340);
#340 = AXIS2_PLACEMENT_3D('',#341,#342,#343);
#341 = CARTESIAN_POINT('',(-29.5011953,-63.9986451,32.639782));
#342 = DIRECTION('',(-1.,0.,0.));
#343 = DIRECTION('',(0.,0.,1.));
#344 = ADVANCED_FACE('',(#345),#351,.F.);
#345 = FACE_BOUND('',#346,.F.);
#346 = EDGE_LOOP('',(#347,#348,#349,#350));
#347 = ORIENTED_EDGE('',*,*,#234,.F.);
#348 = ORIENTED_EDGE('',*,*,#304,.T.);
#349 = ORIENTED_EDGE('',*,*,#274,.T.);
#350 = ORIENTED_EDGE('',*,*,#326,.F.);
#351 = PLANE('',#352);
#352 = AXIS2_PLACEMENT_3D('',#353,#354,#355);
#353 = CARTESIAN_POINT('',(29.4988047,-63.9986451,32.639782));
#354 = DIRECTION('',(0.,0.,1.));
#355 = DIRECTION('',(0.,1.,0.));
#356 = ADVANCED_FACE('',(#357),#363,.T.);
#357 = FACE_BOUND('',#358,.T.);
#358 = EDGE_LOOP('',(#359,#360,#361,#362));
#359 = ORIENTED_EDGE('',*,*,#250,.F.);
#360 = ORIENTED_EDGE('',*,*,#311,.T.);
#361 = ORIENTED_EDGE('',*,*,#290,.T.);
#362 = ORIENTED_EDGE('',*,*,#333,.F.);
#363 = PLANE('',#364);
#364 = AXIS2_PLACEMENT_3D('',#365,#366,#367);
#365 = CARTESIAN_POINT('',(29.4988047,-63.9986451,92.639782));
#366 = DIRECTION('',(0.,0.,1.));
#367 = DIRECTION('',(0.,1.,0.));
#368 = MANIFOLD_SOLID_BREP('',#369);
#369 = CLOSED_SHELL('',(#370,#410,#450,#472,#494,#506));
#370 = ADVANCED_FACE('',(#371),#405,.F.);
#371 = FACE_BOUND('',#372,.F.);
#372 = EDGE_LOOP('',(#373,#383,#391,#399));
#373 = ORIENTED_EDGE('',*,*,#374,.F.);
#374 = EDGE_CURVE('',#375,#377,#379,.T.);
#375 = VERTEX_POINT('',#376);
#376 = CARTESIAN_POINT('',(29.4988047,42.0013549,32.639782));
#377 = VERTEX_POINT('',#378);
#378 = CARTESIAN_POINT('',(29.4988047,42.0013549,92.639782));
#379 = LINE('',#380,#381);
#380 = CARTESIAN_POINT('',(29.4988047,42.0013549,32.639782));
#381 = VECTOR('',#382,1.);
#382 = DIRECTION('',(0.,0.,1.));
#383 = ORIENTED_EDGE('',*,*,#384,.T.);
#384 = EDGE_CURVE('',#375,#385,#387,.T.);
#385 = VERTEX_POINT('',#386);
#386 = CARTESIAN_POINT('',(-29.5011953,42.0013549,32.639782));
#387 = LINE('',#388,#389);
#388 = CARTESIAN_POINT('',(29.4988047,42.0013549,32.639782));
#389 = VECTOR('',#390,1.);
#390 = DIRECTION('',(-1.,0.,0.));
#391 = ORIENTED_EDGE('',*,*,#392,.T.);
#392 = EDGE_CURVE('',#385,#393,#395,.T.);
#393 = VERTEX_POINT('',#394);
#394 = CARTESIAN_POINT('',(-29.5011953,42.0013549,92.639782));
#395 = LINE('',#396,#397);
#396 = CARTESIAN_POINT('',(-29.5011953,42.0013549,32.639782));
#397 = VECTOR('',#398,1.);
#398 = DIRECTION('',(0.,0.,1.));
#399 = ORIENTED_EDGE('',*,*,#400,.F.);
#400 = EDGE_CURVE('',#377,#393,#401,.T.);
#401 = LINE('',#402,#403);
#402 = CARTESIAN_POINT('',(29.4988047,42.0013549,92.639782));
#403 = VECTOR('',#404,1.);
#404 = DIRECTION('',(-1.,0.,0.));
#405 = PLANE('',#406);
#406 = AXIS2_PLACEMENT_3D('',#407,#408,#409);
#407 = CARTESIAN_POINT('',(29.4988047,42.0013549,32.639782));
#408 = DIRECTION('',(0.,1.,0.));
#409 = DIRECTION('',(0.,0.,1.));
#410 = ADVANCED_FACE('',(#411),#445,.T.);
#411 = FACE_BOUND('',#412,.T.);
#412 = EDGE_LOOP('',(#413,#423,#431,#439));
#413 = ORIENTED_EDGE('',*,*,#414,.F.);
#414 = EDGE_CURVE('',#415,#417,#419,.T.);
#415 = VERTEX_POINT('',#416);
#416 = CARTESIAN_POINT('',(29.4988047,64.0013549,32.639782));
#417 = VERTEX_POINT('',#418);
#418 = CARTESIAN_POINT('',(29.4988047,64.0013549,92.639782));
#419 = LINE('',#420,#421);
#420 = CARTESIAN_POINT('',(29.4988047,64.0013549,32.639782));
#421 = VECTOR('',#422,1.);
#422 = DIRECTION('',(0.,0.,1.));
#423 = ORIENTED_EDGE('',*,*,#424,.T.);
#424 = EDGE_CURVE('',#415,#425,#427,.T.);
#425 = VERTEX_POINT('',#426);
#426 = CARTESIAN_POINT('',(-29.5011953,64.0013549,32.639782));
#427 = LINE('',#428,#429);
#428 = CARTESIAN_POINT('',(29.4988047,64.0013549,32.639782));
#429 = VECTOR('',#430,1.);
#430 = DIRECTION('',(-1.,0.,0.));
#431 = ORIENTED_EDGE('',*,*,#432,.T.);
#432 = EDGE_CURVE('',#425,#433,#435,.T.);
#433 = VERTEX_POINT('',#434);
#434 = CARTESIAN_POINT('',(-29.5011953,64.0013549,92.639782));
#435 = LINE('',#436,#437);
#436 = CARTESIAN_POINT('',(-29.5011953,64.0013549,32.639782));
#437 = VECTOR('',#438,1.);
#438 = DIRECTION('',(0.,0.,1.));
#439 = ORIENTED_EDGE('',*,*,#440,.F.);
#440 = EDGE_CURVE('',#417,#433,#441,.T.);
#441 = LINE('',#442,#443);
#442 = CARTESIAN_POINT('',(29.4988047,64.0013549,92.639782));
#443 = VECTOR('',#444,1.);
#444 = DIRECTION('',(-1.,0.,0.));
#445 = PLANE('',#446);
#446 = AXIS2_PLACEMENT_3D('',#447,#448,#449);
#447 = CARTESIAN_POINT('',(29.4988047,64.0013549,32.639782));
#448 = DIRECTION('',(0.,1.,0.));
#449 = DIRECTION('',(0.,0.,1.));
#450 = ADVANCED_FACE('',(#451),#467,.F.);
#451 = FACE_BOUND('',#452,.F.);
#452 = EDGE_LOOP('',(#453,#459,#460,#466));
#453 = ORIENTED_EDGE('',*,*,#454,.F.);
#454 = EDGE_CURVE('',#375,#415,#455,.T.);
#455 = LINE('',#456,#457);
#456 = CARTESIAN_POINT('',(29.4988047,42.0013549,32.639782));
#457 = VECTOR('',#458,1.);
#458 = DIRECTION('',(0.,1.,0.));
#459 = ORIENTED_EDGE('',*,*,#374,.T.);
#460 = ORIENTED_EDGE('',*,*,#461,.T.);
#461 = EDGE_CURVE('',#377,#417,#462,.T.);
#462 = LINE('',#463,#464);
#463 = CARTESIAN_POINT('',(29.4988047,42.0013549,92.639782));
#464 = VECTOR('',#465,1.);
#465 = DIRECTION('',(0.,1.,0.));
#466 = ORIENTED_EDGE('',*,*,#414,.F.);
#467 = PLANE('',#468);
#468 = AXIS2_PLACEMENT_3D('',#469,#470,#471);
#469 = CARTESIAN_POINT('',(29.4988047,42.0013549,32.639782));
#470 = DIRECTION('',(-1.,0.,0.));
#471 = DIRECTION('',(0.,0.,1.));
#472 = ADVANCED_FACE('',(#473),#489,.T.);
#473 = FACE_BOUND('',#474,.T.);
#474 = EDGE_LOOP('',(#475,#481,#482,#488));
#475 = ORIENTED_EDGE('',*,*,#476,.F.);
#476 = EDGE_CURVE('',#385,#425,#477,.T.);
#477 = LINE('',#478,#479);
#478 = CARTESIAN_POINT('',(-29.5011953,42.0013549,32.639782));
#479 = VECTOR('',#480,1.);
#480 = DIRECTION('',(0.,1.,0.));
#481 = ORIENTED_EDGE('',*,*,#392,.T.);
#482 = ORIENTED_EDGE('',*,*,#483,.T.);
#483 = EDGE_CURVE('',#393,#433,#484,.T.);
#484 = LINE('',#485,#486);
#485 = CARTESIAN_POINT('',(-29.5011953,42.0013549,92.639782));
#486 = VECTOR('',#487,1.);
#487 = DIRECTION('',(0.,1.,0.));
#488 = ORIENTED_EDGE('',*,*,#432,.F.);
#489 = PLANE('',#490);
#490 = AXIS2_PLACEMENT_3D('',#491,#492,#493);
#491 = CARTESIAN_POINT('',(-29.5011953,42.0013549,32.639782));
#492 = DIRECTION('',(-1.,0.,0.));
#493 = DIRECTION('',(0.,0.,1.));
#494 = ADVANCED_FACE('',(#495),#501,.F.);
#495 = FACE_BOUND('',#496,.F.);
#496 = EDGE_LOOP('',(#497,#498,#499,#500));
#497 = ORIENTED_EDGE('',*,*,#384,.F.);
#498 = ORIENTED_EDGE('',*,*,#454,.T.);
#499 = ORIENTED_EDGE('',*,*,#424,.T.);
#500 = ORIENTED_EDGE('',*,*,#476,.F.);
#501 = PLANE('',#502);
#502 = AXIS2_PLACEMENT_3D('',#503,#504,#505);
#503 = CARTESIAN_POINT('',(29.4988047,42.0013549,32.639782));
#504 = DIRECTION('',(0.,0.,1.));
#505 = DIRECTION('',(0.,1.,0.));
#506 = ADVANCED_FACE('',(#507),#513,.T.);
#507 = FACE_BOUND('',#508,.T.);
#508 = EDGE_LOOP('',(#509,#510,#511,#512));
#509 = ORIENTED_EDGE('',*,*,#400,.F.);
#510 = ORIENTED_EDGE('',*,*,#461,.T.);
#511 = ORIENTED_EDGE('',*,*,#440,.T.);
#512 = ORIENTED_EDGE('',*,*,#483,.F.);
#513 = PLANE('',#514);
#514 = AXIS2_PLACEMENT_3D('',#515,#516,#517);
#515 = CARTESIAN_POINT('',(29.4988047,42.0013549,92.639782));
#516 = DIRECTION('',(0.,0.,1.));
#517 = DIRECTION('',(0.,1.,0.));
#518 = MANIFOLD_SOLID_BREP('',#519);
#519 = CLOSED_SHELL('',(#520,#553,#562));
#520 = ADVANCED_FACE('',(#521),#548,.T.);
#521 = FACE_BOUND('',#522,.T.);
#522 = EDGE_LOOP('',(#523,#532,#540,#547));
#523 = ORIENTED_EDGE('',*,*,#524,.F.);
#524 = EDGE_CURVE('',#525,#525,#527,.T.);
#525 = VERTEX_POINT('',#526);
#526 = CARTESIAN_POINT('',(-1.195299999978E-03,-42.6986451,121.639782));
#527 = CIRCLE('',#528,29.);
#528 = AXIS2_PLACEMENT_3D('',#529,#530,#531);
#529 = CARTESIAN_POINT('',(-1.195299999967E-03,-42.6986451,92.639782));
#530 = DIRECTION('',(0.,1.,0.));
#531 = DIRECTION('',(0.,0.,1.));
#532 = ORIENTED_EDGE('',*,*,#533,.F.);
#533 = EDGE_CURVE('',#534,#525,#536,.T.);
#534 = VERTEX_POINT('',#535);
#535 = CARTESIAN_POINT('',(-1.19529999998E-03,-63.9986451,121.639782));
#536 = LINE('',#537,#538);
#537 = CARTESIAN_POINT('',(-1.195299999974E-03,-63.9986451,121.639782));
#538 = VECTOR('',#539,1.);
#539 = DIRECTION('',(0.,1.,0.));
#540 = ORIENTED_EDGE('',*,*,#541,.T.);
#541 = EDGE_CURVE('',#534,#534,#542,.T.);
#542 = CIRCLE('',#543,29.);
#543 = AXIS2_PLACEMENT_3D('',#544,#545,#546);
#544 = CARTESIAN_POINT('',(-1.195299999967E-03,-63.9986451,92.639782));
#545 = DIRECTION('',(0.,1.,0.));
#546 = DIRECTION('',(0.,0.,1.));
#547 = ORIENTED_EDGE('',*,*,#533,.T.);
#548 = CYLINDRICAL_SURFACE('',#549,29.);
#549 = AXIS2_PLACEMENT_3D('',#550,#551,#552);
#550 = CARTESIAN_POINT('',(-1.195299999967E-03,-63.9986451,92.639782));
#551 = DIRECTION('',(0.,1.,0.));
#552 = DIRECTION('',(0.,0.,1.));
#553 = ADVANCED_FACE('',(#554),#557,.T.);
#554 = FACE_BOUND('',#555,.T.);
#555 = EDGE_LOOP('',(#556));
#556 = ORIENTED_EDGE('',*,*,#524,.T.);
#557 = PLANE('',#558);
#558 = AXIS2_PLACEMENT_3D('',#559,#560,#561);
#559 = CARTESIAN_POINT('',(-1.195299999967E-03,-42.6986451,92.639782));
#560 = DIRECTION('',(0.,1.,0.));
#561 = DIRECTION('',(0.,0.,1.));
#562 = ADVANCED_FACE('',(#563),#566,.F.);
#563 = FACE_BOUND('',#564,.T.);
#564 = EDGE_LOOP('',(#565));
#565 = ORIENTED_EDGE('',*,*,#541,.F.);
#566 = PLANE('',#567);
#567 = AXIS2_PLACEMENT_3D('',#568,#569,#570);
#568 = CARTESIAN_POINT('',(-1.195299999967E-03,-63.9986451,92.639782));
#569 = DIRECTION('',(0.,1.,0.));
#570 = DIRECTION('',(0.,0.,1.));
#571 = MANIFOLD_SOLID_BREP('',#572);
#572 = CLOSED_SHELL('',(#573,#606,#615));
#573 = ADVANCED_FACE('',(#574),#601,.T.);
#574 = FACE_BOUND('',#575,.T.);
#575 = EDGE_LOOP('',(#576,#585,#593,#600));
#576 = ORIENTED_EDGE('',*,*,#577,.F.);
#577 = EDGE_CURVE('',#578,#578,#580,.T.);
#578 = VERTEX_POINT('',#579);
#579 = CARTESIAN_POINT('',(-1.195299999978E-03,64.0013549,121.639782));
#580 = CIRCLE('',#581,29.);
#581 = AXIS2_PLACEMENT_3D('',#582,#583,#584);
#582 = CARTESIAN_POINT('',(-1.195299999967E-03,64.0013549,92.639782));
#583 = DIRECTION('',(0.,1.,0.));
#584 = DIRECTION('',(0.,0.,1.));
#585 = ORIENTED_EDGE('',*,*,#586,.F.);
#586 = EDGE_CURVE('',#587,#578,#589,.T.);
#587 = VERTEX_POINT('',#588);
#588 = CARTESIAN_POINT('',(-1.19529999998E-03,42.0013549,121.639782));
#589 = LINE('',#590,#591);
#590 = CARTESIAN_POINT('',(-1.195299999974E-03,42.0013549,121.639782));
#591 = VECTOR('',#592,1.);
#592 = DIRECTION('',(0.,1.,0.));
#593 = ORIENTED_EDGE('',*,*,#594,.T.);
#594 = EDGE_CURVE('',#587,#587,#595,.T.);
#595 = CIRCLE('',#596,29.);
#596 = AXIS2_PLACEMENT_3D('',#597,#598,#599);
#597 = CARTESIAN_POINT('',(-1.195299999967E-03,42.0013549,92.639782));
#598 = DIRECTION('',(0.,1.,0.));
#599 = DIRECTION('',(0.,0.,1.));
#600 = ORIENTED_EDGE('',*,*,#586,.T.);
#601 = CYLINDRICAL_SURFACE('',#602,29.);
#602 = AXIS2_PLACEMENT_3D('',#603,#604,#605);
#603 = CARTESIAN_POINT('',(-1.195299999967E-03,42.0013549,92.639782));
#604 = DIRECTION('',(0.,1.,0.));
#605 = DIRECTION('',(0.,0.,1.));
#606 = ADVANCED_FACE('',(#607),#610,.T.);
#607 = FACE_BOUND('',#608,.T.);
#608 = EDGE_LOOP('',(#609));
#609 = ORIENTED_EDGE('',*,*,#577,.T.);
#610 = PLANE('',#611);
#611 = AXIS2_PLACEMENT_3D('',#612,#613,#614);
#612 = CARTESIAN_POINT('',(-1.195299999967E-03,64.0013549,92.639782));
#613 = DIRECTION('',(0.,1.,0.));
#614 = DIRECTION('',(0.,0.,1.));
#615 = ADVANCED_FACE('',(#616),#619,.F.);
#616 = FACE_BOUND('',#617,.T.);
#617 = EDGE_LOOP('',(#618));
#618 = ORIENTED_EDGE('',*,*,#594,.F.);
#619 = PLANE('',#620);
#620 = AXIS2_PLACEMENT_3D('',#621,#622,#623);
#621 = CARTESIAN_POINT('',(-1.195299999967E-03,42.0013549,92.639782));
#622 = DIRECTION('',(0.,1.,0.));
#623 = DIRECTION('',(0.,0.,1.));
#624 = MANIFOLD_SOLID_BREP('',#625);
#625 = CLOSED_SHELL('',(#626,#659,#668));
#626 = ADVANCED_FACE('',(#627),#654,.T.);
#627 = FACE_BOUND('',#628,.T.);
#628 = EDGE_LOOP('',(#629,#638,#646,#653));
#629 = ORIENTED_EDGE('',*,*,#630,.F.);
#630 = EDGE_CURVE('',#631,#631,#633,.T.);
#631 = VERTEX_POINT('',#632);
#632 = CARTESIAN_POINT('',(-1.195299999982E-03,-0.3986451,140.889782));
#633 = CIRCLE('',#634,48.25);
#634 = AXIS2_PLACEMENT_3D('',#635,#636,#637);
#635 = CARTESIAN_POINT('',(-1.195299999967E-03,-0.3986451,92.639782));
#636 = DIRECTION('',(0.,1.,0.));
#637 = DIRECTION('',(0.,0.,1.));
#638 = ORIENTED_EDGE('',*,*,#639,.F.);
#639 = EDGE_CURVE('',#640,#631,#642,.T.);
#640 = VERTEX_POINT('',#641);
#641 = CARTESIAN_POINT('',(-1.195299999981E-03,-42.6986451,140.889782));
#642 = LINE('',#643,#644);
#643 = CARTESIAN_POINT('',(-1.195299999978E-03,-42.6986451,140.889782));
#644 = VECTOR('',#645,1.);
#645 = DIRECTION('',(0.,1.,0.));
#646 = ORIENTED_EDGE('',*,*,#647,.T.);
#647 = EDGE_CURVE('',#640,#640,#648,.T.);
#648 = CIRCLE('',#649,48.25);
#649 = AXIS2_PLACEMENT_3D('',#650,#651,#652);
#650 = CARTESIAN_POINT('',(-1.195299999967E-03,-42.6986451,92.639782));
#651 = DIRECTION('',(0.,1.,0.));
#652 = DIRECTION('',(0.,0.,1.));
#653 = ORIENTED_EDGE('',*,*,#639,.T.);
#654 = CYLINDRICAL_SURFACE('',#655,48.25);
#655 = AXIS2_PLACEMENT_3D('',#656,#657,#658);
#656 = CARTESIAN_POINT('',(-1.195299999967E-03,-42.6986451,92.639782));
#657 = DIRECTION('',(0.,1.,0.));
#658 = DIRECTION('',(0.,0.,1.));
#659 = ADVANCED_FACE('',(#660),#663,.T.);
#660 = FACE_BOUND('',#661,.T.);
#661 = EDGE_LOOP('',(#662));
#662 = ORIENTED_EDGE('',*,*,#630,.T.);
#663 = PLANE('',#664);
#664 = AXIS2_PLACEMENT_3D('',#665,#666,#667);
#665 = CARTESIAN_POINT('',(-1.195299999967E-03,-0.3986451,92.639782));
#666 = DIRECTION('',(0.,1.,0.));
#667 = DIRECTION('',(0.,0.,1.));
#668 = ADVANCED_FACE('',(#669),#672,.F.);
#669 = FACE_BOUND('',#670,.T.);
#670 = EDGE_LOOP('',(#671));
#671 = ORIENTED_EDGE('',*,*,#647,.F.);
#672 = PLANE('',#673);
#673 = AXIS2_PLACEMENT_3D('',#674,#675,#676);
#674 = CARTESIAN_POINT('',(-1.195299999967E-03,-42.6986451,92.639782));
#675 = DIRECTION('',(0.,1.,0.));
#676 = DIRECTION('',(0.,0.,1.));
#677 = MANIFOLD_SOLID_BREP('',#678);
#678 = CLOSED_SHELL('',(#679,#712,#721));
#679 = ADVANCED_FACE('',(#680),#707,.T.);
#680 = FACE_BOUND('',#681,.T.);
#681 = EDGE_LOOP('',(#682,#691,#699,#706));
#682 = ORIENTED_EDGE('',*,*,#683,.F.);
#683 = EDGE_CURVE('',#684,#684,#686,.T.);
#684 = VERTEX_POINT('',#685);
#685 = CARTESIAN_POINT('',(-1.195299999982E-03,-0.2986451,44.389782));
#686 = CIRCLE('',#687,48.25);
#687 = AXIS2_PLACEMENT_3D('',#688,#689,#690);
#688 = CARTESIAN_POINT('',(-1.195299999967E-03,-0.2986451,92.639782));
#689 = DIRECTION('',(-0.,-1.,-0.));
#690 = DIRECTION('',(0.,0.,-1.));
#691 = ORIENTED_EDGE('',*,*,#692,.F.);
#692 = EDGE_CURVE('',#693,#684,#695,.T.);
#693 = VERTEX_POINT('',#694);
#694 = CARTESIAN_POINT('',(-1.195299999983E-03,42.0013549,44.389782));
#695 = LINE('',#696,#697);
#696 = CARTESIAN_POINT('',(-1.195299999978E-03,42.0013549,44.389782));
#697 = VECTOR('',#698,1.);
#698 = DIRECTION('',(0.,-1.,0.));
#699 = ORIENTED_EDGE('',*,*,#700,.T.);
#700 = EDGE_CURVE('',#693,#693,#701,.T.);
#701 = CIRCLE('',#702,48.25);
#702 = AXIS2_PLACEMENT_3D('',#703,#704,#705);
#703 = CARTESIAN_POINT('',(-1.195299999967E-03,42.0013549,92.639782));
#704 = DIRECTION('',(-0.,-1.,-0.));
#705 = DIRECTION('',(0.,0.,-1.));
#706 = ORIENTED_EDGE('',*,*,#692,.T.);
#707 = CYLINDRICAL_SURFACE('',#708,48.25);
#708 = AXIS2_PLACEMENT_3D('',#709,#710,#711);
#709 = CARTESIAN_POINT('',(-1.195299999967E-03,42.0013549,92.639782));
#710 = DIRECTION('',(0.,-1.,0.));
#711 = DIRECTION('',(0.,0.,-1.));
#712 = ADVANCED_FACE('',(#713),#716,.T.);
#713 = FACE_BOUND('',#714,.T.);
#714 = EDGE_LOOP('',(#715));
#715 = ORIENTED_EDGE('',*,*,#683,.T.);
#716 = PLANE('',#717);
#717 = AXIS2_PLACEMENT_3D('',#718,#719,#720);
#718 = CARTESIAN_POINT('',(-1.195299999967E-03,-0.2986451,92.639782));
#719 = DIRECTION('',(0.,-1.,0.));
#720 = DIRECTION('',(0.,0.,-1.));
#721 = ADVANCED_FACE('',(#722),#725,.F.);
#722 = FACE_BOUND('',#723,.T.);
#723 = EDGE_LOOP('',(#724));
#724 = ORIENTED_EDGE('',*,*,#700,.F.);
#725 = PLANE('',#726);
#726 = AXIS2_PLACEMENT_3D('',#727,#728,#729);
#727 = CARTESIAN_POINT('',(-1.195299999967E-03,42.0013549,92.639782));
#728 = DIRECTION('',(0.,-1.,0.));
#729 = DIRECTION('',(0.,0.,-1.));
#730 = MANIFOLD_SOLID_BREP('',#731);
#731 = CLOSED_SHELL('',(#732,#765,#840,#915,#932,#949,#966,#983,#1000));
#732 = ADVANCED_FACE('',(#733),#760,.T.);
#733 = FACE_BOUND('',#734,.T.);
#734 = EDGE_LOOP('',(#735,#744,#752,#759));
#735 = ORIENTED_EDGE('',*,*,#736,.F.);
#736 = EDGE_CURVE('',#737,#737,#739,.T.);
#737 = VERTEX_POINT('',#738);
#738 = CARTESIAN_POINT('',(-5.94986556231,28.893755377078,
    1.42108547152E-14));
#739 = CIRCLE('',#740,29.5);
#740 = AXIS2_PLACEMENT_3D('',#741,#742,#743);
#741 = CARTESIAN_POINT('',(0.,0.,1.42108547152E-14));
#742 = DIRECTION('',(0.,0.,1.));
#743 = DIRECTION('',(-0.201690358044,0.979449334816,0.));
#744 = ORIENTED_EDGE('',*,*,#745,.F.);
#745 = EDGE_CURVE('',#746,#737,#748,.T.);
#746 = VERTEX_POINT('',#747);
#747 = CARTESIAN_POINT('',(-5.94986556231,28.893755377078,-6.6));
#748 = LINE('',#749,#750);
#749 = CARTESIAN_POINT('',(-5.94986556231,28.893755377078,-6.6));
#750 = VECTOR('',#751,1.);
#751 = DIRECTION('',(0.,0.,1.));
#752 = ORIENTED_EDGE('',*,*,#753,.T.);
#753 = EDGE_CURVE('',#746,#746,#754,.T.);
#754 = CIRCLE('',#755,29.5);
#755 = AXIS2_PLACEMENT_3D('',#756,#757,#758);
#756 = CARTESIAN_POINT('',(0.,0.,-6.6));
#757 = DIRECTION('',(0.,0.,1.));
#758 = DIRECTION('',(-0.201690358044,0.979449334816,0.));
#759 = ORIENTED_EDGE('',*,*,#745,.T.);
#760 = CYLINDRICAL_SURFACE('',#761,29.5);
#761 = AXIS2_PLACEMENT_3D('',#762,#763,#764);
#762 = CARTESIAN_POINT('',(0.,0.,-6.6));
#763 = DIRECTION('',(0.,0.,1.));
#764 = DIRECTION('',(-0.201690358044,0.979449334816,0.));
#765 = ADVANCED_FACE('',(#766,#769,#780,#791,#802,#813,#824),#835,.T.);
#766 = FACE_BOUND('',#767,.T.);
#767 = EDGE_LOOP('',(#768));
#768 = ORIENTED_EDGE('',*,*,#736,.T.);
#769 = FACE_BOUND('',#770,.T.);
#770 = EDGE_LOOP('',(#771));
#771 = ORIENTED_EDGE('',*,*,#772,.F.);
#772 = EDGE_CURVE('',#773,#773,#775,.T.);
#773 = VERTEX_POINT('',#774);
#774 = CARTESIAN_POINT('',(14.606149124508,-7.008908597553,
    1.42108547152E-14));
#775 = CIRCLE('',#776,1.65);
#776 = AXIS2_PLACEMENT_3D('',#777,#778,#779);
#777 = CARTESIAN_POINT('',(14.938938215282,-8.625,1.42108547152E-14));
#778 = DIRECTION('',(0.,0.,1.));
#779 = DIRECTION('',(-0.201690358044,0.979449334816,0.));
#780 = FACE_BOUND('',#781,.T.);
#781 = EDGE_LOOP('',(#782));
#782 = ORIENTED_EDGE('',*,*,#783,.F.);
#783 = EDGE_CURVE('',#784,#784,#786,.T.);
#784 = VERTEX_POINT('',#785);
#785 = CARTESIAN_POINT('',(14.606149124508,10.241091402447,
    1.42108547152E-14));
#786 = CIRCLE('',#787,1.65);
#787 = AXIS2_PLACEMENT_3D('',#788,#789,#790);
#788 = CARTESIAN_POINT('',(14.938938215282,8.625,1.42108547152E-14));
#789 = DIRECTION('',(0.,0.,1.));
#790 = DIRECTION('',(-0.201690358044,0.979449334816,0.));
#791 = FACE_BOUND('',#792,.T.);
#792 = EDGE_LOOP('',(#793));
#793 = ORIENTED_EDGE('',*,*,#794,.F.);
#794 = EDGE_CURVE('',#795,#795,#797,.T.);
#795 = VERTEX_POINT('',#796);
#796 = CARTESIAN_POINT('',(-0.332789090773,18.866091402447,
    1.42108547152E-14));
#797 = CIRCLE('',#798,1.65);
#798 = AXIS2_PLACEMENT_3D('',#799,#800,#801);
#799 = CARTESIAN_POINT('',(-2.353672812205E-14,17.25,1.42108547152E-14)
  );
#800 = DIRECTION('',(0.,0.,1.));
#801 = DIRECTION('',(-0.201690358044,0.979449334816,0.));
#802 = FACE_BOUND('',#803,.T.);
#803 = EDGE_LOOP('',(#804));
#804 = ORIENTED_EDGE('',*,*,#805,.F.);
#805 = EDGE_CURVE('',#806,#806,#808,.T.);
#806 = VERTEX_POINT('',#807);
#807 = CARTESIAN_POINT('',(-0.332789090773,-15.63390859755,
    1.42108547152E-14));
#808 = CIRCLE('',#809,1.65);
#809 = AXIS2_PLACEMENT_3D('',#810,#811,#812);
#810 = CARTESIAN_POINT('',(1.643130076445E-14,-17.25,1.42108547152E-14)
  );
#811 = DIRECTION('',(0.,0.,1.));
#812 = DIRECTION('',(-0.201690358044,0.979449334816,0.));
#813 = FACE_BOUND('',#814,.T.);
#814 = EDGE_LOOP('',(#815));
#815 = ORIENTED_EDGE('',*,*,#816,.F.);
#816 = EDGE_CURVE('',#817,#817,#819,.T.);
#817 = VERTEX_POINT('',#818);
#818 = CARTESIAN_POINT('',(-15.27172730605,-7.008908597553,
    1.42108547152E-14));
#819 = CIRCLE('',#820,1.65);
#820 = AXIS2_PLACEMENT_3D('',#821,#822,#823);
#821 = CARTESIAN_POINT('',(-14.93893821528,-8.625,1.42108547152E-14));
#822 = DIRECTION('',(0.,0.,1.));
#823 = DIRECTION('',(-0.201690358044,0.979449334816,0.));
#824 = FACE_BOUND('',#825,.T.);
#825 = EDGE_LOOP('',(#826));
#826 = ORIENTED_EDGE('',*,*,#827,.F.);
#827 = EDGE_CURVE('',#828,#828,#830,.T.);
#828 = VERTEX_POINT('',#829);
#829 = CARTESIAN_POINT('',(-15.27172730605,10.241091402447,
    1.42108547152E-14));
#830 = CIRCLE('',#831,1.65);
#831 = AXIS2_PLACEMENT_3D('',#832,#833,#834);
#832 = CARTESIAN_POINT('',(-14.93893821528,8.625,1.42108547152E-14));
#833 = DIRECTION('',(0.,0.,1.));
#834 = DIRECTION('',(-0.201690358044,0.979449334816,0.));
#835 = PLANE('',#836);
#836 = AXIS2_PLACEMENT_3D('',#837,#838,#839);
#837 = CARTESIAN_POINT('',(0.,0.,1.42108547152E-14));
#838 = DIRECTION('',(0.,0.,1.));
#839 = DIRECTION('',(-0.201690358044,0.979449334816,0.));
#840 = ADVANCED_FACE('',(#841,#844,#855,#866,#877,#888,#899),#910,.F.);
#841 = FACE_BOUND('',#842,.F.);
#842 = EDGE_LOOP('',(#843));
#843 = ORIENTED_EDGE('',*,*,#753,.T.);
#844 = FACE_BOUND('',#845,.F.);
#845 = EDGE_LOOP('',(#846));
#846 = ORIENTED_EDGE('',*,*,#847,.F.);
#847 = EDGE_CURVE('',#848,#848,#850,.T.);
#848 = VERTEX_POINT('',#849);
#849 = CARTESIAN_POINT('',(14.606149124508,-7.008908597553,-6.6));
#850 = CIRCLE('',#851,1.65);
#851 = AXIS2_PLACEMENT_3D('',#852,#853,#854);
#852 = CARTESIAN_POINT('',(14.938938215282,-8.625,-6.6));
#853 = DIRECTION('',(0.,0.,1.));
#854 = DIRECTION('',(-0.201690358044,0.979449334816,0.));
#855 = FACE_BOUND('',#856,.F.);
#856 = EDGE_LOOP('',(#857));
#857 = ORIENTED_EDGE('',*,*,#858,.F.);
#858 = EDGE_CURVE('',#859,#859,#861,.T.);
#859 = VERTEX_POINT('',#860);
#860 = CARTESIAN_POINT('',(14.606149124508,10.241091402447,-6.6));
#861 = CIRCLE('',#862,1.65);
#862 = AXIS2_PLACEMENT_3D('',#863,#864,#865);
#863 = CARTESIAN_POINT('',(14.938938215282,8.625,-6.6));
#864 = DIRECTION('',(0.,0.,1.));
#865 = DIRECTION('',(-0.201690358044,0.979449334816,0.));
#866 = FACE_BOUND('',#867,.F.);
#867 = EDGE_LOOP('',(#868));
#868 = ORIENTED_EDGE('',*,*,#869,.F.);
#869 = EDGE_CURVE('',#870,#870,#872,.T.);
#870 = VERTEX_POINT('',#871);
#871 = CARTESIAN_POINT('',(-0.332789090773,18.866091402447,-6.6));
#872 = CIRCLE('',#873,1.65);
#873 = AXIS2_PLACEMENT_3D('',#874,#875,#876);
#874 = CARTESIAN_POINT('',(-2.353672812205E-14,17.25,-6.6));
#875 = DIRECTION('',(0.,0.,1.));
#876 = DIRECTION('',(-0.201690358044,0.979449334816,0.));
#877 = FACE_BOUND('',#878,.F.);
#878 = EDGE_LOOP('',(#879));
#879 = ORIENTED_EDGE('',*,*,#880,.F.);
#880 = EDGE_CURVE('',#881,#881,#883,.T.);
#881 = VERTEX_POINT('',#882);
#882 = CARTESIAN_POINT('',(-0.332789090773,-15.63390859755,-6.6));
#883 = CIRCLE('',#884,1.65);
#884 = AXIS2_PLACEMENT_3D('',#885,#886,#887);
#885 = CARTESIAN_POINT('',(1.643130076445E-14,-17.25,-6.6));
#886 = DIRECTION('',(0.,0.,1.));
#887 = DIRECTION('',(-0.201690358044,0.979449334816,0.));
#888 = FACE_BOUND('',#889,.F.);
#889 = EDGE_LOOP('',(#890));
#890 = ORIENTED_EDGE('',*,*,#891,.F.);
#891 = EDGE_CURVE('',#892,#892,#894,.T.);
#892 = VERTEX_POINT('',#893);
#893 = CARTESIAN_POINT('',(-15.27172730605,-7.008908597553,-6.6));
#894 = CIRCLE('',#895,1.65);
#895 = AXIS2_PLACEMENT_3D('',#896,#897,#898);
#896 = CARTESIAN_POINT('',(-14.93893821528,-8.625,-6.6));
#897 = DIRECTION('',(0.,0.,1.));
#898 = DIRECTION('',(-0.201690358044,0.979449334816,0.));
#899 = FACE_BOUND('',#900,.F.);
#900 = EDGE_LOOP('',(#901));
#901 = ORIENTED_EDGE('',*,*,#902,.F.);
#902 = EDGE_CURVE('',#903,#903,#905,.T.);
#903 = VERTEX_POINT('',#904);
#904 = CARTESIAN_POINT('',(-15.27172730605,10.241091402447,-6.6));
#905 = CIRCLE('',#906,1.65);
#906 = AXIS2_PLACEMENT_3D('',#907,#908,#909);
#907 = CARTESIAN_POINT('',(-14.93893821528,8.625,-6.6));
#908 = DIRECTION('',(0.,0.,1.));
#909 = DIRECTION('',(-0.201690358044,0.979449334816,0.));
#910 = PLANE('',#911);
#911 = AXIS2_PLACEMENT_3D('',#912,#913,#914);
#912 = CARTESIAN_POINT('',(0.,0.,-6.6));
#913 = DIRECTION('',(0.,0.,1.));
#914 = DIRECTION('',(-0.201690358044,0.979449334816,0.));
#915 = ADVANCED_FACE('',(#916),#927,.F.);
#916 = FACE_BOUND('',#917,.F.);
#917 = EDGE_LOOP('',(#918,#919,#925,#926));
#918 = ORIENTED_EDGE('',*,*,#772,.F.);
#919 = ORIENTED_EDGE('',*,*,#920,.F.);
#920 = EDGE_CURVE('',#848,#773,#921,.T.);
#921 = LINE('',#922,#923);
#922 = CARTESIAN_POINT('',(14.606149124508,-7.008908597553,-7.));
#923 = VECTOR('',#924,1.);
#924 = DIRECTION('',(0.,0.,1.));
#925 = ORIENTED_EDGE('',*,*,#847,.T.);
#926 = ORIENTED_EDGE('',*,*,#920,.T.);
#927 = CYLINDRICAL_SURFACE('',#928,1.65);
#928 = AXIS2_PLACEMENT_3D('',#929,#930,#931);
#929 = CARTESIAN_POINT('',(14.938938215282,-8.625,-7.));
#930 = DIRECTION('',(0.,0.,1.));
#931 = DIRECTION('',(-0.201690358044,0.979449334816,0.));
#932 = ADVANCED_FACE('',(#933),#944,.F.);
#933 = FACE_BOUND('',#934,.F.);
#934 = EDGE_LOOP('',(#935,#936,#942,#943));
#935 = ORIENTED_EDGE('',*,*,#783,.F.);
#936 = ORIENTED_EDGE('',*,*,#937,.F.);
#937 = EDGE_CURVE('',#859,#784,#938,.T.);
#938 = LINE('',#939,#940);
#939 = CARTESIAN_POINT('',(14.606149124508,10.241091402447,-7.));
#940 = VECTOR('',#941,1.);
#941 = DIRECTION('',(0.,0.,1.));
#942 = ORIENTED_EDGE('',*,*,#858,.T.);
#943 = ORIENTED_EDGE('',*,*,#937,.T.);
#944 = CYLINDRICAL_SURFACE('',#945,1.65);
#945 = AXIS2_PLACEMENT_3D('',#946,#947,#948);
#946 = CARTESIAN_POINT('',(14.938938215282,8.625,-7.));
#947 = DIRECTION('',(0.,0.,1.));
#948 = DIRECTION('',(-0.201690358044,0.979449334816,0.));
#949 = ADVANCED_FACE('',(#950),#961,.F.);
#950 = FACE_BOUND('',#951,.F.);
#951 = EDGE_LOOP('',(#952,#953,#959,#960));
#952 = ORIENTED_EDGE('',*,*,#794,.F.);
#953 = ORIENTED_EDGE('',*,*,#954,.F.);
#954 = EDGE_CURVE('',#870,#795,#955,.T.);
#955 = LINE('',#956,#957);
#956 = CARTESIAN_POINT('',(-0.332789090773,18.866091402447,-7.));
#957 = VECTOR('',#958,1.);
#958 = DIRECTION('',(0.,0.,1.));
#959 = ORIENTED_EDGE('',*,*,#869,.T.);
#960 = ORIENTED_EDGE('',*,*,#954,.T.);
#961 = CYLINDRICAL_SURFACE('',#962,1.65);
#962 = AXIS2_PLACEMENT_3D('',#963,#964,#965);
#963 = CARTESIAN_POINT('',(-2.353672812205E-14,17.25,-7.));
#964 = DIRECTION('',(0.,0.,1.));
#965 = DIRECTION('',(-0.201690358044,0.979449334816,0.));
#966 = ADVANCED_FACE('',(#967),#978,.F.);
#967 = FACE_BOUND('',#968,.F.);
#968 = EDGE_LOOP('',(#969,#970,#976,#977));
#969 = ORIENTED_EDGE('',*,*,#805,.F.);
#970 = ORIENTED_EDGE('',*,*,#971,.F.);
#971 = EDGE_CURVE('',#881,#806,#972,.T.);
#972 = LINE('',#973,#974);
#973 = CARTESIAN_POINT('',(-0.332789090773,-15.63390859755,-7.));
#974 = VECTOR('',#975,1.);
#975 = DIRECTION('',(0.,0.,1.));
#976 = ORIENTED_EDGE('',*,*,#880,.T.);
#977 = ORIENTED_EDGE('',*,*,#971,.T.);
#978 = CYLINDRICAL_SURFACE('',#979,1.65);
#979 = AXIS2_PLACEMENT_3D('',#980,#981,#982);
#980 = CARTESIAN_POINT('',(1.643130076445E-14,-17.25,-7.));
#981 = DIRECTION('',(0.,0.,1.));
#982 = DIRECTION('',(-0.201690358044,0.979449334816,0.));
#983 = ADVANCED_FACE('',(#984),#995,.F.);
#984 = FACE_BOUND('',#985,.F.);
#985 = EDGE_LOOP('',(#986,#987,#993,#994));
#986 = ORIENTED_EDGE('',*,*,#816,.F.);
#987 = ORIENTED_EDGE('',*,*,#988,.F.);
#988 = EDGE_CURVE('',#892,#817,#989,.T.);
#989 = LINE('',#990,#991);
#990 = CARTESIAN_POINT('',(-15.27172730605,-7.008908597553,-7.));
#991 = VECTOR('',#992,1.);
#992 = DIRECTION('',(0.,0.,1.));
#993 = ORIENTED_EDGE('',*,*,#891,.T.);
#994 = ORIENTED_EDGE('',*,*,#988,.T.);
#995 = CYLINDRICAL_SURFACE('',#996,1.65);
#996 = AXIS2_PLACEMENT_3D('',#997,#998,#999);
#997 = CARTESIAN_POINT('',(-14.93893821528,-8.625,-7.));
#998 = DIRECTION('',(0.,0.,1.));
#999 = DIRECTION('',(-0.201690358044,0.979449334816,0.));
#1000 = ADVANCED_FACE('',(#1001),#1012,.F.);
#1001 = FACE_BOUND('',#1002,.F.);
#1002 = EDGE_LOOP('',(#1003,#1004,#1010,#1011));
#1003 = ORIENTED_EDGE('',*,*,#827,.F.);
#1004 = ORIENTED_EDGE('',*,*,#1005,.F.);
#1005 = EDGE_CURVE('',#903,#828,#1006,.T.);
#1006 = LINE('',#1007,#1008);
#1007 = CARTESIAN_POINT('',(-15.27172730605,10.241091402447,-7.));
#1008 = VECTOR('',#1009,1.);
#1009 = DIRECTION('',(0.,0.,1.));
#1010 = ORIENTED_EDGE('',*,*,#902,.T.);
#1011 = ORIENTED_EDGE('',*,*,#1005,.T.);
#1012 = CYLINDRICAL_SURFACE('',#1013,1.65);
#1013 = AXIS2_PLACEMENT_3D('',#1014,#1015,#1016);
#1014 = CARTESIAN_POINT('',(-14.93893821528,8.625,-7.));
#1015 = DIRECTION('',(0.,0.,1.));
#1016 = DIRECTION('',(-0.201690358044,0.979449334816,0.));
#1017 = ( GEOMETRIC_REPRESENTATION_CONTEXT(3) 
GLOBAL_UNCERTAINTY_ASSIGNED_CONTEXT((#1021)) 
GLOBAL_UNIT_ASSIGNED_CONTEXT((#1018,#1019,#1020)) REPRESENTATION_CONTEXT
('Context #1','3D Context with UNIT and UNCERTAINTY') );
#1018 = ( LENGTH_UNIT() NAMED_UNIT(*) SI_UNIT(.MILLI.,.METRE.) );
#1019 = ( NAMED_UNIT(*) PLANE_ANGLE_UNIT() SI_UNIT($,.RADIAN.) );
#1020 = ( NAMED_UNIT(*) SI_UNIT($,.STERADIAN.) SOLID_ANGLE_UNIT() );
#1021 = UNCERTAINTY_MEASURE_WITH_UNIT(LENGTH_MEASURE(1.E-07),#1018,
  'distance_accuracy_value','confusion accuracy');
#1022 = PRODUCT_RELATED_PRODUCT_CATEGORY('part',$,(#7));
ENDSEC;
END-ISO-10303-21;
