ISO-10303-21;
HEADER;
FILE_DESCRIPTION(('FreeCAD Model'),'2;1');
FILE_NAME('Open CASCADE Shape Model','2026-08-10T23:23:10',('FreeCAD'),(
    'FreeCAD'),'Open CASCADE STEP processor 7.8','FreeCAD','Unknown');
FILE_SCHEMA(('AUTOMOTIVE_DESIGN { 1 0 10303 214 1 1 1 1 }'));
ENDSEC;
DATA;
#1 = APPLICATION_PROTOCOL_DEFINITION('international standard',
  'automotive_design',2000,#2);
#2 = APPLICATION_CONTEXT(
  'core data for automotive mechanical design processes');
#3 = SHAPE_DEFINITION_REPRESENTATION(#4,#10);
#4 = PRODUCT_DEFINITION_SHAPE('','',#5);
#5 = PRODUCT_DEFINITION('design','',#6,#9);
#6 = PRODUCT_DEFINITION_FORMATION('','',#7);
#7 = PRODUCT('Open CASCADE STEP translator 7.8 12',
  'Open CASCADE STEP translator 7.8 12','',(#8));
#8 = PRODUCT_CONTEXT('',#2,'mechanical');
#9 = PRODUCT_DEFINITION_CONTEXT('part definition',#2,'design');
#10 = SHAPE_REPRESENTATION('',(#11,#15,#68,#262),#315);
#11 = AXIS2_PLACEMENT_3D('',#12,#13,#14);
#12 = CARTESIAN_POINT('',(0.,0.,0.));
#13 = DIRECTION('',(0.,0.,1.));
#14 = DIRECTION('',(1.,0.,-0.));
#15 = MANIFOLD_SOLID_BREP('',#16);
#16 = CLOSED_SHELL('',(#17,#50,#59));
#17 = ADVANCED_FACE('',(#18),#45,.T.);
#18 = FACE_BOUND('',#19,.T.);
#19 = EDGE_LOOP('',(#20,#29,#37,#44));
#20 = ORIENTED_EDGE('',*,*,#21,.F.);
#21 = EDGE_CURVE('',#22,#22,#24,.T.);
#22 = VERTEX_POINT('',#23);
#23 = CARTESIAN_POINT('',(-48.25,52.3,0.));
#24 = CIRCLE('',#25,48.25);
#25 = AXIS2_PLACEMENT_3D('',#26,#27,#28);
#26 = CARTESIAN_POINT('',(5.684341886081E-14,52.3,2.84217094304E-14));
#27 = DIRECTION('',(-6.661338147751E-16,1.,-1.1E-16));
#28 = DIRECTION('',(-1.,-6.661338147751E-16,-3.08148791102E-33));
#29 = ORIENTED_EDGE('',*,*,#30,.F.);
#30 = EDGE_CURVE('',#31,#22,#33,.T.);
#31 = VERTEX_POINT('',#32);
#32 = CARTESIAN_POINT('',(-48.25,16.6,0.));
#33 = LINE('',#34,#35);
#34 = CARTESIAN_POINT('',(-48.25,16.6,0.));
#35 = VECTOR('',#36,1.);
#36 = DIRECTION('',(-6.661338147751E-16,1.,-1.1E-16));
#37 = ORIENTED_EDGE('',*,*,#38,.T.);
#38 = EDGE_CURVE('',#31,#31,#39,.T.);
#39 = CIRCLE('',#40,48.25);
#40 = AXIS2_PLACEMENT_3D('',#41,#42,#43);
#41 = CARTESIAN_POINT('',(5.684341886081E-14,16.6,2.84217094304E-14));
#42 = DIRECTION('',(-6.661338147751E-16,1.,-1.1E-16));
#43 = DIRECTION('',(-1.,-6.661338147751E-16,-3.08148791102E-33));
#44 = ORIENTED_EDGE('',*,*,#30,.T.);
#45 = CYLINDRICAL_SURFACE('',#46,48.25);
#46 = AXIS2_PLACEMENT_3D('',#47,#48,#49);
#47 = CARTESIAN_POINT('',(5.684341886081E-14,16.6,2.84217094304E-14));
#48 = DIRECTION('',(-6.661338147751E-16,1.,-1.1E-16));
#49 = DIRECTION('',(-1.,-6.661338147751E-16,-3.08148791102E-33));
#50 = ADVANCED_FACE('',(#51),#54,.T.);
#51 = FACE_BOUND('',#52,.T.);
#52 = EDGE_LOOP('',(#53));
#53 = ORIENTED_EDGE('',*,*,#21,.T.);
#54 = PLANE('',#55);
#55 = AXIS2_PLACEMENT_3D('',#56,#57,#58);
#56 = CARTESIAN_POINT('',(5.684341886081E-14,52.3,2.84217094304E-14));
#57 = DIRECTION('',(-6.661338147751E-16,1.,-1.1E-16));
#58 = DIRECTION('',(-1.,-6.661338147751E-16,-3.08148791102E-33));
#59 = ADVANCED_FACE('',(#60),#63,.F.);
#60 = FACE_BOUND('',#61,.T.);
#61 = EDGE_LOOP('',(#62));
#62 = ORIENTED_EDGE('',*,*,#38,.F.);
#63 = PLANE('',#64);
#64 = AXIS2_PLACEMENT_3D('',#65,#66,#67);
#65 = CARTESIAN_POINT('',(5.684341886081E-14,16.6,2.84217094304E-14));
#66 = DIRECTION('',(-6.661338147751E-16,1.,-1.1E-16));
#67 = DIRECTION('',(-1.,-6.661338147751E-16,-3.08148791102E-33));
#68 = MANIFOLD_SOLID_BREP('',#69);
#69 = CLOSED_SHELL('',(#70,#110,#161,#192,#234,#248));
#70 = ADVANCED_FACE('',(#71),#105,.T.);
#71 = FACE_BOUND('',#72,.T.);
#72 = EDGE_LOOP('',(#73,#83,#91,#99));
#73 = ORIENTED_EDGE('',*,*,#74,.F.);
#74 = EDGE_CURVE('',#75,#77,#79,.T.);
#75 = VERTEX_POINT('',#76);
#76 = CARTESIAN_POINT('',(-47.4455315933,64.300000017204,-10.53002997274
    ));
#77 = VERTEX_POINT('',#78);
#78 = CARTESIAN_POINT('',(-165.8443856749,64.300000017204,
    19.874190469659));
#79 = LINE('',#80,#81);
#80 = CARTESIAN_POINT('',(-5.471947709313,64.300000017204,
    -21.30863173427));
#81 = VECTOR('',#82,1.);
#82 = DIRECTION('',(-0.968574171787,0.,0.248724895712));
#83 = ORIENTED_EDGE('',*,*,#84,.T.);
#84 = EDGE_CURVE('',#75,#85,#87,.T.);
#85 = VERTEX_POINT('',#86);
#86 = CARTESIAN_POINT('',(-47.4455315933,44.300000017204,-10.53002997274
    ));
#87 = LINE('',#88,#89);
#88 = CARTESIAN_POINT('',(-47.4455315933,64.300000017204,-10.53002997274
    ));
#89 = VECTOR('',#90,1.);
#90 = DIRECTION('',(0.,-1.,0.));
#91 = ORIENTED_EDGE('',*,*,#92,.T.);
#92 = EDGE_CURVE('',#85,#93,#95,.T.);
#93 = VERTEX_POINT('',#94);
#94 = CARTESIAN_POINT('',(-165.8443856749,44.300000017204,
    19.874190469659));
#95 = LINE('',#96,#97);
#96 = CARTESIAN_POINT('',(-5.471947709313,44.300000017204,
    -21.30863173427));
#97 = VECTOR('',#98,1.);
#98 = DIRECTION('',(-0.968574171787,0.,0.248724895712));
#99 = ORIENTED_EDGE('',*,*,#100,.F.);
#100 = EDGE_CURVE('',#77,#93,#101,.T.);
#101 = LINE('',#102,#103);
#102 = CARTESIAN_POINT('',(-165.8443856749,64.300000017204,
    19.874190469658));
#103 = VECTOR('',#104,1.);
#104 = DIRECTION('',(0.,-1.,0.));
#105 = PLANE('',#106);
#106 = AXIS2_PLACEMENT_3D('',#107,#108,#109);
#107 = CARTESIAN_POINT('',(-5.471947709313,64.300000017204,
    -21.30863173427));
#108 = DIRECTION('',(-0.248724895712,-0.,-0.968574171787));
#109 = DIRECTION('',(0.,-1.,0.));
#110 = ADVANCED_FACE('',(#111),#156,.T.);
#111 = FACE_BOUND('',#112,.T.);
#112 = EDGE_LOOP('',(#113,#122,#123,#132,#141,#149));
#113 = ORIENTED_EDGE('',*,*,#114,.F.);
#114 = EDGE_CURVE('',#75,#115,#117,.T.);
#115 = VERTEX_POINT('',#116);
#116 = CARTESIAN_POINT('',(34.862440347182,64.300000017204,
    33.861043336479));
#117 = CIRCLE('',#118,48.6);
#118 = AXIS2_PLACEMENT_3D('',#119,#120,#121);
#119 = CARTESIAN_POINT('',(-3.65503183275E-09,64.300000017204,
    4.504499884206E-08));
#120 = DIRECTION('',(0.,-1.,0.));
#121 = DIRECTION('',(0.717334163597,0.,0.696729285832));
#122 = ORIENTED_EDGE('',*,*,#74,.T.);
#123 = ORIENTED_EDGE('',*,*,#124,.F.);
#124 = EDGE_CURVE('',#125,#77,#127,.T.);
#125 = VERTEX_POINT('',#126);
#126 = CARTESIAN_POINT('',(-167.4835815024,64.300000017204,
    85.822467301935));
#127 = CIRCLE('',#128,48.6);
#128 = AXIS2_PLACEMENT_3D('',#129,#130,#131);
#129 = CARTESIAN_POINT('',(-202.3460218532,64.300000017204,51.9614240105
    ));
#130 = DIRECTION('',(0.,-1.,0.));
#131 = DIRECTION('',(0.717334163597,0.,0.696729285832));
#132 = ORIENTED_EDGE('',*,*,#133,.F.);
#133 = EDGE_CURVE('',#134,#125,#136,.T.);
#134 = VERTEX_POINT('',#135);
#135 = CARTESIAN_POINT('',(-154.9004902636,64.300000017204,
    62.491454028294));
#136 = CIRCLE('',#137,48.6);
#137 = AXIS2_PLACEMENT_3D('',#138,#139,#140);
#138 = CARTESIAN_POINT('',(-202.3460218532,64.300000017204,51.9614240105
    ));
#139 = DIRECTION('',(0.,-1.,0.));
#140 = DIRECTION('',(0.717334163597,0.,0.696729285832));
#141 = ORIENTED_EDGE('',*,*,#142,.F.);
#142 = EDGE_CURVE('',#143,#134,#145,.T.);
#143 = VERTEX_POINT('',#144);
#144 = CARTESIAN_POINT('',(-36.50163618198,64.300000017204,
    32.087233585887));
#145 = LINE('',#146,#147);
#146 = CARTESIAN_POINT('',(5.471947702002,64.300000017204,
    21.308631824363));
#147 = VECTOR('',#148,1.);
#148 = DIRECTION('',(-0.968574171787,0.,0.248724895712));
#149 = ORIENTED_EDGE('',*,*,#150,.F.);
#150 = EDGE_CURVE('',#115,#143,#151,.T.);
#151 = CIRCLE('',#152,48.6);
#152 = AXIS2_PLACEMENT_3D('',#153,#154,#155);
#153 = CARTESIAN_POINT('',(-3.65503183275E-09,64.300000017204,
    4.504499884206E-08));
#154 = DIRECTION('',(0.,-1.,0.));
#155 = DIRECTION('',(0.717334163597,0.,0.696729285832));
#156 = PLANE('',#157);
#157 = AXIS2_PLACEMENT_3D('',#158,#159,#160);
#158 = CARTESIAN_POINT('',(-98.73774768806,64.300000017204,
    26.416640888217));
#159 = DIRECTION('',(0.,1.,-0.));
#160 = DIRECTION('',(-0.717334163597,0.,-0.696729285832));
#161 = ADVANCED_FACE('',(#162),#187,.F.);
#162 = FACE_BOUND('',#163,.F.);
#163 = EDGE_LOOP('',(#164,#165,#173,#181));
#164 = ORIENTED_EDGE('',*,*,#142,.F.);
#165 = ORIENTED_EDGE('',*,*,#166,.T.);
#166 = EDGE_CURVE('',#143,#167,#169,.T.);
#167 = VERTEX_POINT('',#168);
#168 = CARTESIAN_POINT('',(-36.50163618198,44.300000017204,
    32.087233585887));
#169 = LINE('',#170,#171);
#170 = CARTESIAN_POINT('',(-36.50163618198,64.300000017204,
    32.087233585887));
#171 = VECTOR('',#172,1.);
#172 = DIRECTION('',(0.,-1.,0.));
#173 = ORIENTED_EDGE('',*,*,#174,.T.);
#174 = EDGE_CURVE('',#167,#175,#177,.T.);
#175 = VERTEX_POINT('',#176);
#176 = CARTESIAN_POINT('',(-154.9004902636,44.300000017204,
    62.491454028294));
#177 = LINE('',#178,#179);
#178 = CARTESIAN_POINT('',(5.471947702002,44.300000017204,
    21.308631824363));
#179 = VECTOR('',#180,1.);
#180 = DIRECTION('',(-0.968574171787,0.,0.248724895712));
#181 = ORIENTED_EDGE('',*,*,#182,.F.);
#182 = EDGE_CURVE('',#134,#175,#183,.T.);
#183 = LINE('',#184,#185);
#184 = CARTESIAN_POINT('',(-154.9004902636,64.300000017204,
    62.491454028293));
#185 = VECTOR('',#186,1.);
#186 = DIRECTION('',(0.,-1.,0.));
#187 = PLANE('',#188);
#188 = AXIS2_PLACEMENT_3D('',#189,#190,#191);
#189 = CARTESIAN_POINT('',(5.471947702002,64.300000017204,
    21.308631824363));
#190 = DIRECTION('',(-0.248724895712,-0.,-0.968574171787));
#191 = DIRECTION('',(0.,-1.,0.));
#192 = ADVANCED_FACE('',(#193),#229,.T.);
#193 = FACE_BOUND('',#194,.T.);
#194 = EDGE_LOOP('',(#195,#204,#211,#212,#221,#228));
#195 = ORIENTED_EDGE('',*,*,#196,.T.);
#196 = EDGE_CURVE('',#85,#197,#199,.T.);
#197 = VERTEX_POINT('',#198);
#198 = CARTESIAN_POINT('',(34.862440347182,44.300000017204,
    33.861043336479));
#199 = CIRCLE('',#200,48.6);
#200 = AXIS2_PLACEMENT_3D('',#201,#202,#203);
#201 = CARTESIAN_POINT('',(-3.65503183275E-09,44.300000017204,
    4.504499884206E-08));
#202 = DIRECTION('',(0.,-1.,0.));
#203 = DIRECTION('',(0.717334163597,0.,0.696729285832));
#204 = ORIENTED_EDGE('',*,*,#205,.T.);
#205 = EDGE_CURVE('',#197,#167,#206,.T.);
#206 = CIRCLE('',#207,48.6);
#207 = AXIS2_PLACEMENT_3D('',#208,#209,#210);
#208 = CARTESIAN_POINT('',(-3.65503183275E-09,44.300000017204,
    4.504499884206E-08));
#209 = DIRECTION('',(0.,-1.,0.));
#210 = DIRECTION('',(0.717334163597,0.,0.696729285832));
#211 = ORIENTED_EDGE('',*,*,#174,.T.);
#212 = ORIENTED_EDGE('',*,*,#213,.T.);
#213 = EDGE_CURVE('',#175,#214,#216,.T.);
#214 = VERTEX_POINT('',#215);
#215 = CARTESIAN_POINT('',(-167.4835815024,44.300000017204,
    85.822467301935));
#216 = CIRCLE('',#217,48.6);
#217 = AXIS2_PLACEMENT_3D('',#218,#219,#220);
#218 = CARTESIAN_POINT('',(-202.3460218532,44.300000017204,51.9614240105
    ));
#219 = DIRECTION('',(0.,-1.,0.));
#220 = DIRECTION('',(0.717334163597,0.,0.696729285832));
#221 = ORIENTED_EDGE('',*,*,#222,.T.);
#222 = EDGE_CURVE('',#214,#93,#223,.T.);
#223 = CIRCLE('',#224,48.6);
#224 = AXIS2_PLACEMENT_3D('',#225,#226,#227);
#225 = CARTESIAN_POINT('',(-202.3460218532,44.300000017204,51.9614240105
    ));
#226 = DIRECTION('',(0.,-1.,0.));
#227 = DIRECTION('',(0.717334163597,0.,0.696729285832));
#228 = ORIENTED_EDGE('',*,*,#92,.F.);
#229 = PLANE('',#230);
#230 = AXIS2_PLACEMENT_3D('',#231,#232,#233);
#231 = CARTESIAN_POINT('',(-98.73774768806,44.300000017204,
    26.416640888216));
#232 = DIRECTION('',(0.,-1.,0.));
#233 = DIRECTION('',(0.717334163597,0.,0.696729285832));
#234 = ADVANCED_FACE('',(#235),#243,.T.);
#235 = FACE_BOUND('',#236,.T.);
#236 = EDGE_LOOP('',(#237,#238,#239,#240,#241,#242));
#237 = ORIENTED_EDGE('',*,*,#150,.T.);
#238 = ORIENTED_EDGE('',*,*,#166,.T.);
#239 = ORIENTED_EDGE('',*,*,#205,.F.);
#240 = ORIENTED_EDGE('',*,*,#196,.F.);
#241 = ORIENTED_EDGE('',*,*,#84,.F.);
#242 = ORIENTED_EDGE('',*,*,#114,.T.);
#243 = CYLINDRICAL_SURFACE('',#244,48.6);
#244 = AXIS2_PLACEMENT_3D('',#245,#246,#247);
#245 = CARTESIAN_POINT('',(-3.65503183275E-09,64.300000017204,
    4.504499884206E-08));
#246 = DIRECTION('',(0.,-1.,0.));
#247 = DIRECTION('',(0.717334163597,0.,0.696729285832));
#248 = ADVANCED_FACE('',(#249),#257,.T.);
#249 = FACE_BOUND('',#250,.T.);
#250 = EDGE_LOOP('',(#251,#252,#253,#254,#255,#256));
#251 = ORIENTED_EDGE('',*,*,#213,.F.);
#252 = ORIENTED_EDGE('',*,*,#182,.F.);
#253 = ORIENTED_EDGE('',*,*,#133,.T.);
#254 = ORIENTED_EDGE('',*,*,#124,.T.);
#255 = ORIENTED_EDGE('',*,*,#100,.T.);
#256 = ORIENTED_EDGE('',*,*,#222,.F.);
#257 = CYLINDRICAL_SURFACE('',#258,48.6);
#258 = AXIS2_PLACEMENT_3D('',#259,#260,#261);
#259 = CARTESIAN_POINT('',(-202.3460218532,64.300000017204,51.9614240105
    ));
#260 = DIRECTION('',(0.,-1.,0.));
#261 = DIRECTION('',(0.717334163597,0.,0.696729285832));
#262 = MANIFOLD_SOLID_BREP('',#263);
#263 = CLOSED_SHELL('',(#264,#297,#306));
#264 = ADVANCED_FACE('',(#265),#292,.T.);
#265 = FACE_BOUND('',#266,.T.);
#266 = EDGE_LOOP('',(#267,#276,#284,#291));
#267 = ORIENTED_EDGE('',*,*,#268,.F.);
#268 = EDGE_CURVE('',#269,#269,#271,.T.);
#269 = VERTEX_POINT('',#270);
#270 = CARTESIAN_POINT('',(-250.5960218496,52.3,51.961423965456));
#271 = CIRCLE('',#272,48.25);
#272 = AXIS2_PLACEMENT_3D('',#273,#274,#275);
#273 = CARTESIAN_POINT('',(-202.3460218496,52.3,51.961423965456));
#274 = DIRECTION('',(-6.661338147751E-16,1.,-1.1E-16));
#275 = DIRECTION('',(-1.,-6.661338147751E-16,-3.08148791102E-33));
#276 = ORIENTED_EDGE('',*,*,#277,.F.);
#277 = EDGE_CURVE('',#278,#269,#280,.T.);
#278 = VERTEX_POINT('',#279);
#279 = CARTESIAN_POINT('',(-250.5960218496,16.6,51.961423965456));
#280 = LINE('',#281,#282);
#281 = CARTESIAN_POINT('',(-250.5960218496,16.6,51.961423965456));
#282 = VECTOR('',#283,1.);
#283 = DIRECTION('',(-6.661338147751E-16,1.,-1.1E-16));
#284 = ORIENTED_EDGE('',*,*,#285,.T.);
#285 = EDGE_CURVE('',#278,#278,#286,.T.);
#286 = CIRCLE('',#287,48.25);
#287 = AXIS2_PLACEMENT_3D('',#288,#289,#290);
#288 = CARTESIAN_POINT('',(-202.3460218496,16.6,51.961423965456));
#289 = DIRECTION('',(-6.661338147751E-16,1.,-1.1E-16));
#290 = DIRECTION('',(-1.,-6.661338147751E-16,-3.08148791102E-33));
#291 = ORIENTED_EDGE('',*,*,#277,.T.);
#292 = CYLINDRICAL_SURFACE('',#293,48.25);
#293 = AXIS2_PLACEMENT_3D('',#294,#295,#296);
#294 = CARTESIAN_POINT('',(-202.3460218496,16.6,51.961423965456));
#295 = DIRECTION('',(-6.661338147751E-16,1.,-1.1E-16));
#296 = DIRECTION('',(-1.,-6.661338147751E-16,-3.08148791102E-33));
#297 = ADVANCED_FACE('',(#298),#301,.T.);
#298 = FACE_BOUND('',#299,.T.);
#299 = EDGE_LOOP('',(#300));
#300 = ORIENTED_EDGE('',*,*,#268,.T.);
#301 = PLANE('',#302);
#302 = AXIS2_PLACEMENT_3D('',#303,#304,#305);
#303 = CARTESIAN_POINT('',(-202.3460218496,52.3,51.961423965456));
#304 = DIRECTION('',(-6.661338147751E-16,1.,-1.1E-16));
#305 = DIRECTION('',(-1.,-6.661338147751E-16,-3.08148791102E-33));
#306 = ADVANCED_FACE('',(#307),#310,.F.);
#307 = FACE_BOUND('',#308,.T.);
#308 = EDGE_LOOP('',(#309));
#309 = ORIENTED_EDGE('',*,*,#285,.F.);
#310 = PLANE('',#311);
#311 = AXIS2_PLACEMENT_3D('',#312,#313,#314);
#312 = CARTESIAN_POINT('',(-202.3460218496,16.6,51.961423965456));
#313 = DIRECTION('',(-6.661338147751E-16,1.,-1.1E-16));
#314 = DIRECTION('',(-1.,-6.661338147751E-16,-3.08148791102E-33));
#315 = ( GEOMETRIC_REPRESENTATION_CONTEXT(3) 
GLOBAL_UNCERTAINTY_ASSIGNED_CONTEXT((#319)) GLOBAL_UNIT_ASSIGNED_CONTEXT
((#316,#317,#318)) REPRESENTATION_CONTEXT('Context #1',
  '3D Context with UNIT and UNCERTAINTY') );
#316 = ( LENGTH_UNIT() NAMED_UNIT(*) SI_UNIT(.MILLI.,.METRE.) );
#317 = ( NAMED_UNIT(*) PLANE_ANGLE_UNIT() SI_UNIT($,.RADIAN.) );
#318 = ( NAMED_UNIT(*) SI_UNIT($,.STERADIAN.) SOLID_ANGLE_UNIT() );
#319 = UNCERTAINTY_MEASURE_WITH_UNIT(LENGTH_MEASURE(1.E-07),#316,
  'distance_accuracy_value','confusion accuracy');
#320 = PRODUCT_RELATED_PRODUCT_CATEGORY('part',$,(#7));
ENDSEC;
END-ISO-10303-21;
