ISO-10303-21;
HEADER;
FILE_DESCRIPTION(('FreeCAD Model'),'2;1');
FILE_NAME('Open CASCADE Shape Model','2026-08-10T23:23:15',('FreeCAD'),(
    'FreeCAD'),'Open CASCADE STEP processor 7.8','FreeCAD','Unknown');
FILE_SCHEMA(('AUTOMOTIVE_DESIGN { 1 0 10303 214 1 1 1 1 }'));
ENDSEC;
DATA;
#1 = APPLICATION_PROTOCOL_DEFINITION('international standard',
  'automotive_design',2000,#2);
#2 = APPLICATION_CONTEXT(
  'core data for automotive mechanical design processes');
#3 = SHAPE_DEFINITION_REPRESENTATION(#4,#10);
#4 = PRODUCT_DEFINITION_SHAPE('','',#5);
#5 = PRODUCT_DEFINITION('design','',#6,#9);
#6 = PRODUCT_DEFINITION_FORMATION('','',#7);
#7 = PRODUCT('Open CASCADE STEP translator 7.8 15',
  'Open CASCADE STEP translator 7.8 15','',(#8));
#8 = PRODUCT_CONTEXT('',#2,'mechanical');
#9 = PRODUCT_DEFINITION_CONTEXT('part definition',#2,'design');
#10 = ADVANCED_BREP_SHAPE_REPRESENTATION('',(#11,#15),#766);
#11 = AXIS2_PLACEMENT_3D('',#12,#13,#14);
#12 = CARTESIAN_POINT('',(0.,0.,0.));
#13 = DIRECTION('',(0.,0.,1.));
#14 = DIRECTION('',(1.,0.,-0.));
#15 = MANIFOLD_SOLID_BREP('',#16);
#16 = CLOSED_SHELL('',(#17,#59,#91,#115,#256,#412,#424,#449,#471,#483,
    #505,#517,#539,#551,#573,#585,#607,#619,#641,#653,#685,#703,#732,
    #754));
#17 = ADVANCED_FACE('',(#18),#54,.F.);
#18 = FACE_BOUND('',#19,.F.);
#19 = EDGE_LOOP('',(#20,#31,#39,#48));
#20 = ORIENTED_EDGE('',*,*,#21,.F.);
#21 = EDGE_CURVE('',#22,#24,#26,.T.);
#22 = VERTEX_POINT('',#23);
#23 = CARTESIAN_POINT('',(7.976325334917,-0.615007440249,-0.150000000001
    ));
#24 = VERTEX_POINT('',#25);
#25 = CARTESIAN_POINT('',(-7.976325334882,0.615007440703,-0.149999999999
    ));
#26 = CIRCLE('',#27,8.);
#27 = AXIS2_PLACEMENT_3D('',#28,#29,#30);
#28 = CARTESIAN_POINT('',(3.315260877169E-14,1.838344067431E-16,-0.15));
#29 = DIRECTION('',(1.589826081886E-13,-1.22556271162E-15,1.));
#30 = DIRECTION('',(0.997040666865,-7.687593003116E-02,
    -1.586063419615E-13));
#31 = ORIENTED_EDGE('',*,*,#32,.T.);
#32 = EDGE_CURVE('',#22,#33,#35,.T.);
#33 = VERTEX_POINT('',#34);
#34 = CARTESIAN_POINT('',(7.976325334917,-0.615007440249,-1.000100000001
    ));
#35 = LINE('',#36,#37);
#36 = CARTESIAN_POINT('',(7.976325334917,-0.615007440249,-0.150000000001
    ));
#37 = VECTOR('',#38,1.);
#38 = DIRECTION('',(-1.589826081886E-13,1.22556271162E-15,-1.));
#39 = ORIENTED_EDGE('',*,*,#40,.T.);
#40 = EDGE_CURVE('',#33,#41,#43,.T.);
#41 = VERTEX_POINT('',#42);
#42 = CARTESIAN_POINT('',(-7.976325334878,0.615007440749,-1.000099999999
    ));
#43 = CIRCLE('',#44,8.);
#44 = AXIS2_PLACEMENT_3D('',#45,#46,#47);
#45 = CARTESIAN_POINT('',(-1.019985064494E-13,1.225685267891E-15,-1.0001
    ));
#46 = DIRECTION('',(1.589826081886E-13,-1.22556271162E-15,1.));
#47 = DIRECTION('',(0.997040666865,-7.687593003116E-02,
    -1.586063419615E-13));
#48 = ORIENTED_EDGE('',*,*,#49,.F.);
#49 = EDGE_CURVE('',#24,#41,#50,.T.);
#50 = LINE('',#51,#52);
#51 = CARTESIAN_POINT('',(-7.976325334878,0.615007440751,-0.149999999999
    ));
#52 = VECTOR('',#53,1.);
#53 = DIRECTION('',(-2.736407515522E-13,-1.485830680697E-12,-1.));
#54 = CYLINDRICAL_SURFACE('',#55,8.);
#55 = AXIS2_PLACEMENT_3D('',#56,#57,#58);
#56 = CARTESIAN_POINT('',(5.7E-14,0.,0.));
#57 = DIRECTION('',(1.589826081886E-13,-1.22556271162E-15,1.));
#58 = DIRECTION('',(0.997040666865,-7.687593003116E-02,
    -1.586063419615E-13));
#59 = ADVANCED_FACE('',(#60),#86,.F.);
#60 = FACE_BOUND('',#61,.F.);
#61 = EDGE_LOOP('',(#62,#73,#79,#80));
#62 = ORIENTED_EDGE('',*,*,#63,.F.);
#63 = EDGE_CURVE('',#64,#66,#68,.T.);
#64 = VERTEX_POINT('',#65);
#65 = CARTESIAN_POINT('',(8.125881434947,-0.626538829754,
    -1.364242052659E-12));
#66 = VERTEX_POINT('',#67);
#67 = CARTESIAN_POINT('',(-8.125881434947,0.626538829754,
    1.193711796077E-12));
#68 = CIRCLE('',#69,8.15);
#69 = AXIS2_PLACEMENT_3D('',#70,#71,#72);
#70 = CARTESIAN_POINT('',(5.699999999998E-14,1.545679691895E-28,
    -1.2612E-13));
#71 = DIRECTION('',(1.589826081886E-13,-1.22556271162E-15,1.));
#72 = DIRECTION('',(0.997040666865,-7.687593003116E-02,
    -1.586063419615E-13));
#73 = ORIENTED_EDGE('',*,*,#74,.T.);
#74 = EDGE_CURVE('',#64,#22,#75,.T.);
#75 = LINE('',#76,#77);
#76 = CARTESIAN_POINT('',(8.125881434947,-0.626538829754,
    -1.376721686986E-12));
#77 = VECTOR('',#78,1.);
#78 = DIRECTION('',(-0.705014216659,5.435949143505E-02,-0.707106781186)
  );
#79 = ORIENTED_EDGE('',*,*,#21,.T.);
#80 = ORIENTED_EDGE('',*,*,#81,.F.);
#81 = EDGE_CURVE('',#66,#24,#82,.T.);
#82 = LINE('',#83,#84);
#83 = CARTESIAN_POINT('',(-8.125881434918,0.626538830127,
    1.208561686982E-12));
#84 = VECTOR('',#85,1.);
#85 = DIRECTION('',(0.705014216705,-5.435949082811E-02,-0.707106781187)
  );
#86 = CONICAL_SURFACE('',#87,8.075,0.785398163397);
#87 = AXIS2_PLACEMENT_3D('',#88,#89,#90);
#88 = CARTESIAN_POINT('',(4.507630438584E-14,9.191720337162E-17,
    -7.500000000012E-02));
#89 = DIRECTION('',(1.589826081886E-13,-1.22556271162E-15,1.));
#90 = DIRECTION('',(0.997040666865,-7.687593003116E-02,
    -1.586063419615E-13));
#91 = ADVANCED_FACE('',(#92),#110,.F.);
#92 = FACE_BOUND('',#93,.F.);
#93 = EDGE_LOOP('',(#94,#101,#102,#109));
#94 = ORIENTED_EDGE('',*,*,#95,.F.);
#95 = EDGE_CURVE('',#24,#22,#96,.T.);
#96 = CIRCLE('',#97,8.);
#97 = AXIS2_PLACEMENT_3D('',#98,#99,#100);
#98 = CARTESIAN_POINT('',(3.315260877169E-14,1.838344067431E-16,-0.15));
#99 = DIRECTION('',(1.589826081886E-13,-1.22556271162E-15,1.));
#100 = DIRECTION('',(-0.99704066686,7.687593008793E-02,
    1.586063419609E-13));
#101 = ORIENTED_EDGE('',*,*,#49,.T.);
#102 = ORIENTED_EDGE('',*,*,#103,.T.);
#103 = EDGE_CURVE('',#41,#33,#104,.T.);
#104 = CIRCLE('',#105,8.);
#105 = AXIS2_PLACEMENT_3D('',#106,#107,#108);
#106 = CARTESIAN_POINT('',(-1.019985064494E-13,1.225685267891E-15,
    -1.0001));
#107 = DIRECTION('',(1.589826081886E-13,-1.22556271162E-15,1.));
#108 = DIRECTION('',(0.997040666865,-7.687593003116E-02,
    -1.586063419615E-13));
#109 = ORIENTED_EDGE('',*,*,#32,.F.);
#110 = CYLINDRICAL_SURFACE('',#111,8.);
#111 = AXIS2_PLACEMENT_3D('',#112,#113,#114);
#112 = CARTESIAN_POINT('',(5.7E-14,0.,0.));
#113 = DIRECTION('',(1.589826081886E-13,-1.22556271162E-15,1.));
#114 = DIRECTION('',(0.997040666865,-7.687593003116E-02,
    -1.586063419615E-13));
#115 = ADVANCED_FACE('',(#116,#127,#147,#167,#187,#207,#211,#231),#251,
  .F.);
#116 = FACE_BOUND('',#117,.F.);
#117 = EDGE_LOOP('',(#118));
#118 = ORIENTED_EDGE('',*,*,#119,.T.);
#119 = EDGE_CURVE('',#120,#120,#122,.T.);
#120 = VERTEX_POINT('',#121);
#121 = CARTESIAN_POINT('',(17.448710190464,-1.34536721351,
    -1.000100000003));
#122 = CIRCLE('',#123,17.5005);
#123 = AXIS2_PLACEMENT_3D('',#124,#125,#126);
#124 = CARTESIAN_POINT('',(-1.019985064494E-13,1.225685267891E-15,
    -1.0001));
#125 = DIRECTION('',(1.589826081886E-13,-1.22556271162E-15,1.));
#126 = DIRECTION('',(0.997040666865,-7.687593003116E-02,
    -1.586063419615E-13));
#127 = FACE_BOUND('',#128,.F.);
#128 = EDGE_LOOP('',(#129,#140));
#129 = ORIENTED_EDGE('',*,*,#130,.F.);
#130 = EDGE_CURVE('',#131,#133,#135,.T.);
#131 = VERTEX_POINT('',#132);
#132 = CARTESIAN_POINT('',(-8.038201069455,-13.19546123566,
    -1.000099999999));
#133 = VERTEX_POINT('',#134);
#134 = CARTESIAN_POINT('',(-7.784510500352,-9.905227035006,
    -1.000099999999));
#135 = CIRCLE('',#136,1.65);
#136 = AXIS2_PLACEMENT_3D('',#137,#138,#139);
#137 = CARTESIAN_POINT('',(-7.911355784904,-11.55034413533,
    -1.000099999999));
#138 = DIRECTION('',(1.589826081886E-13,-1.22556271162E-15,1.));
#139 = DIRECTION('',(-7.687593003116E-02,-0.997040666865,1.1E-14));
#140 = ORIENTED_EDGE('',*,*,#141,.F.);
#141 = EDGE_CURVE('',#133,#131,#142,.T.);
#142 = CIRCLE('',#143,1.65);
#143 = AXIS2_PLACEMENT_3D('',#144,#145,#146);
#144 = CARTESIAN_POINT('',(-7.911355784904,-11.55034413533,
    -1.000099999999));
#145 = DIRECTION('',(1.589826081886E-13,-1.22556271162E-15,1.));
#146 = DIRECTION('',(-7.687593003116E-02,-0.997040666865,1.1E-14));
#147 = FACE_BOUND('',#148,.F.);
#148 = EDGE_LOOP('',(#149,#160));
#149 = ORIENTED_EDGE('',*,*,#150,.F.);
#150 = EDGE_CURVE('',#151,#153,#155,.T.);
#151 = VERTEX_POINT('',#152);
#152 = CARTESIAN_POINT('',(5.92036826665,-14.27172425609,-1.000100000001
    ));
#153 = VERTEX_POINT('',#154);
#154 = CARTESIAN_POINT('',(6.174058835752,-10.98149005544,
    -1.000100000001));
#155 = CIRCLE('',#156,1.65);
#156 = AXIS2_PLACEMENT_3D('',#157,#158,#159);
#157 = CARTESIAN_POINT('',(6.047213551201,-12.62660715576,
    -1.000100000001));
#158 = DIRECTION('',(1.589826081886E-13,-1.22556271162E-15,1.));
#159 = DIRECTION('',(-7.687593003116E-02,-0.997040666865,1.1E-14));
#160 = ORIENTED_EDGE('',*,*,#161,.F.);
#161 = EDGE_CURVE('',#153,#151,#162,.T.);
#162 = CIRCLE('',#163,1.65);
#163 = AXIS2_PLACEMENT_3D('',#164,#165,#166);
#164 = CARTESIAN_POINT('',(6.047213551201,-12.62660715576,
    -1.000100000001));
#165 = DIRECTION('',(1.589826081886E-13,-1.22556271162E-15,1.));
#166 = DIRECTION('',(-7.687593003116E-02,-0.997040666865,1.1E-14));
#167 = FACE_BOUND('',#168,.F.);
#168 = EDGE_LOOP('',(#169,#180));
#169 = ORIENTED_EDGE('',*,*,#170,.F.);
#170 = EDGE_CURVE('',#171,#173,#175,.T.);
#171 = VERTEX_POINT('',#172);
#172 = CARTESIAN_POINT('',(-14.08541462065,-0.568854079891,
    -1.000099999998));
#173 = VERTEX_POINT('',#174);
#174 = CARTESIAN_POINT('',(-13.83172405155,2.721380120763,
    -1.000099999998));
#175 = CIRCLE('',#176,1.65);
#176 = AXIS2_PLACEMENT_3D('',#177,#178,#179);
#177 = CARTESIAN_POINT('',(-13.9585693361,1.076263020436,-1.000099999998
    ));
#178 = DIRECTION('',(1.589826081886E-13,-1.22556271162E-15,1.));
#179 = DIRECTION('',(-7.687593003116E-02,-0.997040666865,1.1E-14));
#180 = ORIENTED_EDGE('',*,*,#181,.F.);
#181 = EDGE_CURVE('',#173,#171,#182,.T.);
#182 = CIRCLE('',#183,1.65);
#183 = AXIS2_PLACEMENT_3D('',#184,#185,#186);
#184 = CARTESIAN_POINT('',(-13.9585693361,1.076263020436,-1.000099999998
    ));
#185 = DIRECTION('',(1.589826081886E-13,-1.22556271162E-15,1.));
#186 = DIRECTION('',(-7.687593003116E-02,-0.997040666865,1.1E-14));
#187 = FACE_BOUND('',#188,.F.);
#188 = EDGE_LOOP('',(#189,#200));
#189 = ORIENTED_EDGE('',*,*,#190,.F.);
#190 = EDGE_CURVE('',#191,#193,#195,.T.);
#191 = VERTEX_POINT('',#192);
#192 = CARTESIAN_POINT('',(-6.174058835752,10.981490055442,
    -1.000099999999));
#193 = VERTEX_POINT('',#194);
#194 = CARTESIAN_POINT('',(-5.92036826665,14.271724256096,
    -1.000099999999));
#195 = CIRCLE('',#196,1.65);
#196 = AXIS2_PLACEMENT_3D('',#197,#198,#199);
#197 = CARTESIAN_POINT('',(-6.047213551201,12.626607155769,
    -1.000099999999));
#198 = DIRECTION('',(1.589826081886E-13,-1.22556271162E-15,1.));
#199 = DIRECTION('',(-7.687593003116E-02,-0.997040666865,1.1E-14));
#200 = ORIENTED_EDGE('',*,*,#201,.F.);
#201 = EDGE_CURVE('',#193,#191,#202,.T.);
#202 = CIRCLE('',#203,1.65);
#203 = AXIS2_PLACEMENT_3D('',#204,#205,#206);
#204 = CARTESIAN_POINT('',(-6.047213551201,12.626607155769,
    -1.000099999999));
#205 = DIRECTION('',(1.589826081886E-13,-1.22556271162E-15,1.));
#206 = DIRECTION('',(-7.687593003116E-02,-0.997040666865,1.1E-14));
#207 = FACE_BOUND('',#208,.F.);
#208 = EDGE_LOOP('',(#209,#210));
#209 = ORIENTED_EDGE('',*,*,#103,.F.);
#210 = ORIENTED_EDGE('',*,*,#40,.F.);
#211 = FACE_BOUND('',#212,.F.);
#212 = EDGE_LOOP('',(#213,#224));
#213 = ORIENTED_EDGE('',*,*,#214,.F.);
#214 = EDGE_CURVE('',#215,#217,#219,.T.);
#215 = VERTEX_POINT('',#216);
#216 = CARTESIAN_POINT('',(13.831724051553,-2.721380120763,
    -1.000100000002));
#217 = VERTEX_POINT('',#218);
#218 = CARTESIAN_POINT('',(14.085414620656,0.56885407989,-1.000100000002
    ));
#219 = CIRCLE('',#220,1.65);
#220 = AXIS2_PLACEMENT_3D('',#221,#222,#223);
#221 = CARTESIAN_POINT('',(13.958569336105,-1.076263020436,
    -1.000100000002));
#222 = DIRECTION('',(1.589826081886E-13,-1.22556271162E-15,1.));
#223 = DIRECTION('',(-7.687593003116E-02,-0.997040666865,1.1E-14));
#224 = ORIENTED_EDGE('',*,*,#225,.F.);
#225 = EDGE_CURVE('',#217,#215,#226,.T.);
#226 = CIRCLE('',#227,1.65);
#227 = AXIS2_PLACEMENT_3D('',#228,#229,#230);
#228 = CARTESIAN_POINT('',(13.958569336105,-1.076263020436,
    -1.000100000002));
#229 = DIRECTION('',(1.589826081886E-13,-1.22556271162E-15,1.));
#230 = DIRECTION('',(-7.687593003116E-02,-0.997040666865,1.1E-14));
#231 = FACE_BOUND('',#232,.F.);
#232 = EDGE_LOOP('',(#233,#244));
#233 = ORIENTED_EDGE('',*,*,#234,.F.);
#234 = EDGE_CURVE('',#235,#237,#239,.T.);
#235 = VERTEX_POINT('',#236);
#236 = CARTESIAN_POINT('',(7.784510500352,9.905227035006,-1.000100000001
    ));
#237 = VERTEX_POINT('',#238);
#238 = CARTESIAN_POINT('',(8.038201069455,13.19546123566,-1.000100000001
    ));
#239 = CIRCLE('',#240,1.65);
#240 = AXIS2_PLACEMENT_3D('',#241,#242,#243);
#241 = CARTESIAN_POINT('',(7.911355784904,11.550344135333,
    -1.000100000001));
#242 = DIRECTION('',(1.589826081886E-13,-1.22556271162E-15,1.));
#243 = DIRECTION('',(-7.687593003116E-02,-0.997040666865,1.1E-14));
#244 = ORIENTED_EDGE('',*,*,#245,.F.);
#245 = EDGE_CURVE('',#237,#235,#246,.T.);
#246 = CIRCLE('',#247,1.65);
#247 = AXIS2_PLACEMENT_3D('',#248,#249,#250);
#248 = CARTESIAN_POINT('',(7.911355784904,11.550344135333,
    -1.000100000001));
#249 = DIRECTION('',(1.589826081886E-13,-1.22556271162E-15,1.));
#250 = DIRECTION('',(-7.687593003116E-02,-0.997040666865,1.1E-14));
#251 = PLANE('',#252);
#252 = AXIS2_PLACEMENT_3D('',#253,#254,#255);
#253 = CARTESIAN_POINT('',(-1.019985064494E-13,1.225685267891E-15,
    -1.0001));
#254 = DIRECTION('',(1.589826081886E-13,-1.22556271162E-15,1.));
#255 = DIRECTION('',(0.997040666865,-7.687593003116E-02,
    -1.586063419615E-13));
#256 = ADVANCED_FACE('',(#257,#277,#297,#317,#337,#357,#377,#397),#407,
  .T.);
#257 = FACE_BOUND('',#258,.F.);
#258 = EDGE_LOOP('',(#259,#270));
#259 = ORIENTED_EDGE('',*,*,#260,.T.);
#260 = EDGE_CURVE('',#261,#263,#265,.T.);
#261 = VERTEX_POINT('',#262);
#262 = CARTESIAN_POINT('',(-17.2986555701,1.33379738604,
    3.410605131648E-12));
#263 = VERTEX_POINT('',#264);
#264 = CARTESIAN_POINT('',(17.298655570101,-1.333797386041,
    -2.10320649785E-12));
#265 = CIRCLE('',#266,17.35);
#266 = AXIS2_PLACEMENT_3D('',#267,#268,#269);
#267 = CARTESIAN_POINT('',(5.543788110186E-14,-2.025986635069E-14,
    5.8265E-13));
#268 = DIRECTION('',(-1.589826081886E-13,1.22556271162E-15,-1.));
#269 = DIRECTION('',(-0.997040666865,7.687593003116E-02,
    1.586063419615E-13));
#270 = ORIENTED_EDGE('',*,*,#271,.T.);
#271 = EDGE_CURVE('',#263,#261,#272,.T.);
#272 = CIRCLE('',#273,17.35);
#273 = AXIS2_PLACEMENT_3D('',#274,#275,#276);
#274 = CARTESIAN_POINT('',(7.449465539727E-14,2.268965445584E-13,
    5.2935E-13));
#275 = DIRECTION('',(-1.589826081886E-13,1.22556271162E-15,-1.));
#276 = DIRECTION('',(0.997040666865,-7.687593003116E-02,
    -1.586063419615E-13));
#277 = FACE_BOUND('',#278,.F.);
#278 = EDGE_LOOP('',(#279,#290));
#279 = ORIENTED_EDGE('',*,*,#280,.T.);
#280 = EDGE_CURVE('',#281,#283,#285,.T.);
#281 = VERTEX_POINT('',#282);
#282 = CARTESIAN_POINT('',(-6.174058835752,10.981490055442,
    1.023181539495E-12));
#283 = VERTEX_POINT('',#284);
#284 = CARTESIAN_POINT('',(-5.920368266649,14.271724256095,
    1.023181539495E-12));
#285 = CIRCLE('',#286,1.65);
#286 = AXIS2_PLACEMENT_3D('',#287,#288,#289);
#287 = CARTESIAN_POINT('',(-6.047213551201,12.626607155769,
    9.768764815478E-13));
#288 = DIRECTION('',(1.589826081886E-13,-1.22556271162E-15,1.));
#289 = DIRECTION('',(-7.687593003116E-02,-0.997040666865,1.1E-14));
#290 = ORIENTED_EDGE('',*,*,#291,.T.);
#291 = EDGE_CURVE('',#283,#281,#292,.T.);
#292 = CIRCLE('',#293,1.65);
#293 = AXIS2_PLACEMENT_3D('',#294,#295,#296);
#294 = CARTESIAN_POINT('',(-6.047213551201,12.626607155769,
    9.768764815478E-13));
#295 = DIRECTION('',(1.589826081886E-13,-1.22556271162E-15,1.));
#296 = DIRECTION('',(7.687593003116E-02,0.997040666865,-1.1E-14));
#297 = FACE_BOUND('',#298,.F.);
#298 = EDGE_LOOP('',(#299,#310));
#299 = ORIENTED_EDGE('',*,*,#300,.T.);
#300 = EDGE_CURVE('',#301,#303,#305,.T.);
#301 = VERTEX_POINT('',#302);
#302 = CARTESIAN_POINT('',(7.784510500352,9.905227035006,
    -1.136868377216E-12));
#303 = VERTEX_POINT('',#304);
#304 = CARTESIAN_POINT('',(8.038201069455,13.195461235659,
    -1.250555214938E-12));
#305 = CIRCLE('',#306,1.65);
#306 = AXIS2_PLACEMENT_3D('',#307,#308,#309);
#307 = CARTESIAN_POINT('',(7.911355784904,11.550344135333,
    -1.243612305913E-12));
#308 = DIRECTION('',(1.589826081886E-13,-1.22556271162E-15,1.));
#309 = DIRECTION('',(-7.687593003116E-02,-0.997040666865,1.1E-14));
#310 = ORIENTED_EDGE('',*,*,#311,.T.);
#311 = EDGE_CURVE('',#303,#301,#312,.T.);
#312 = CIRCLE('',#313,1.65);
#313 = AXIS2_PLACEMENT_3D('',#314,#315,#316);
#314 = CARTESIAN_POINT('',(7.911355784904,11.550344135333,
    -1.243612305913E-12));
#315 = DIRECTION('',(1.589826081886E-13,-1.22556271162E-15,1.));
#316 = DIRECTION('',(7.687593003116E-02,0.997040666865,-1.1E-14));
#317 = FACE_BOUND('',#318,.F.);
#318 = EDGE_LOOP('',(#319,#330));
#319 = ORIENTED_EDGE('',*,*,#320,.T.);
#320 = EDGE_CURVE('',#321,#323,#325,.T.);
#321 = VERTEX_POINT('',#322);
#322 = CARTESIAN_POINT('',(13.831724051553,-2.721380120763,
    -2.160049916711E-12));
#323 = VERTEX_POINT('',#324);
#324 = CARTESIAN_POINT('',(14.085414620656,0.56885407989,
    -2.160049916711E-12));
#325 = CIRCLE('',#326,1.65);
#326 = AXIS2_PLACEMENT_3D('',#327,#328,#329);
#327 = CARTESIAN_POINT('',(13.958569336105,-1.076263020436,
    -2.220488787461E-12));
#328 = DIRECTION('',(1.589826081886E-13,-1.22556271162E-15,1.));
#329 = DIRECTION('',(-7.687593003116E-02,-0.997040666865,1.1E-14));
#330 = ORIENTED_EDGE('',*,*,#331,.T.);
#331 = EDGE_CURVE('',#323,#321,#332,.T.);
#332 = CIRCLE('',#333,1.65);
#333 = AXIS2_PLACEMENT_3D('',#334,#335,#336);
#334 = CARTESIAN_POINT('',(13.958569336105,-1.076263020436,
    -2.220488787461E-12));
#335 = DIRECTION('',(1.589826081886E-13,-1.22556271162E-15,1.));
#336 = DIRECTION('',(7.687593003116E-02,0.997040666865,-1.1E-14));
#337 = FACE_BOUND('',#338,.F.);
#338 = EDGE_LOOP('',(#339,#350));
#339 = ORIENTED_EDGE('',*,*,#340,.T.);
#340 = EDGE_CURVE('',#341,#343,#345,.T.);
#341 = VERTEX_POINT('',#342);
#342 = CARTESIAN_POINT('',(5.92036826665,-14.27172425609,
    -8.526512829121E-13));
#343 = VERTEX_POINT('',#344);
#344 = CARTESIAN_POINT('',(6.174058835752,-10.98149005544,
    -9.663381206337E-13));
#345 = CIRCLE('',#346,1.65);
#346 = AXIS2_PLACEMENT_3D('',#347,#348,#349);
#347 = CARTESIAN_POINT('',(6.047213551201,-12.62660715576,
    -9.768764815478E-13));
#348 = DIRECTION('',(1.589826081886E-13,-1.22556271162E-15,1.));
#349 = DIRECTION('',(-7.687593003116E-02,-0.997040666865,1.1E-14));
#350 = ORIENTED_EDGE('',*,*,#351,.T.);
#351 = EDGE_CURVE('',#343,#341,#352,.T.);
#352 = CIRCLE('',#353,1.65);
#353 = AXIS2_PLACEMENT_3D('',#354,#355,#356);
#354 = CARTESIAN_POINT('',(6.047213551201,-12.62660715576,
    -9.768764815478E-13));
#355 = DIRECTION('',(1.589826081886E-13,-1.22556271162E-15,1.));
#356 = DIRECTION('',(7.687593003116E-02,0.997040666865,-1.1E-14));
#357 = FACE_BOUND('',#358,.F.);
#358 = EDGE_LOOP('',(#359,#370));
#359 = ORIENTED_EDGE('',*,*,#360,.T.);
#360 = EDGE_CURVE('',#361,#363,#365,.T.);
#361 = VERTEX_POINT('',#362);
#362 = CARTESIAN_POINT('',(-8.038201069455,-13.19546123566,
    1.307398633799E-12));
#363 = VERTEX_POINT('',#364);
#364 = CARTESIAN_POINT('',(-7.784510500352,-9.905227035006,
    1.307398633799E-12));
#365 = CIRCLE('',#366,1.65);
#366 = AXIS2_PLACEMENT_3D('',#367,#368,#369);
#367 = CARTESIAN_POINT('',(-7.911355784904,-11.55034413533,
    1.243612305913E-12));
#368 = DIRECTION('',(1.589826081886E-13,-1.22556271162E-15,1.));
#369 = DIRECTION('',(-7.687593003116E-02,-0.997040666865,1.1E-14));
#370 = ORIENTED_EDGE('',*,*,#371,.T.);
#371 = EDGE_CURVE('',#363,#361,#372,.T.);
#372 = CIRCLE('',#373,1.65);
#373 = AXIS2_PLACEMENT_3D('',#374,#375,#376);
#374 = CARTESIAN_POINT('',(-7.911355784904,-11.55034413533,
    1.243612305913E-12));
#375 = DIRECTION('',(1.589826081886E-13,-1.22556271162E-15,1.));
#376 = DIRECTION('',(7.687593003116E-02,0.997040666865,-1.1E-14));
#377 = FACE_BOUND('',#378,.F.);
#378 = EDGE_LOOP('',(#379,#390));
#379 = ORIENTED_EDGE('',*,*,#380,.T.);
#380 = EDGE_CURVE('',#381,#383,#385,.T.);
#381 = VERTEX_POINT('',#382);
#382 = CARTESIAN_POINT('',(-14.08541462065,-0.568854079891,
    2.216893335572E-12));
#383 = VERTEX_POINT('',#384);
#384 = CARTESIAN_POINT('',(-13.83172405155,2.721380120763,
    2.273736754432E-12));
#385 = CIRCLE('',#386,1.65);
#386 = AXIS2_PLACEMENT_3D('',#387,#388,#389);
#387 = CARTESIAN_POINT('',(-13.9585693361,1.076263020436,
    2.220488787461E-12));
#388 = DIRECTION('',(1.589826081886E-13,-1.22556271162E-15,1.));
#389 = DIRECTION('',(-7.687593003116E-02,-0.997040666865,1.1E-14));
#390 = ORIENTED_EDGE('',*,*,#391,.T.);
#391 = EDGE_CURVE('',#383,#381,#392,.T.);
#392 = CIRCLE('',#393,1.65);
#393 = AXIS2_PLACEMENT_3D('',#394,#395,#396);
#394 = CARTESIAN_POINT('',(-13.9585693361,1.076263020436,
    2.220488787461E-12));
#395 = DIRECTION('',(1.589826081886E-13,-1.22556271162E-15,1.));
#396 = DIRECTION('',(7.687593003116E-02,0.997040666865,-1.1E-14));
#397 = FACE_BOUND('',#398,.F.);
#398 = EDGE_LOOP('',(#399,#400));
#399 = ORIENTED_EDGE('',*,*,#63,.T.);
#400 = ORIENTED_EDGE('',*,*,#401,.T.);
#401 = EDGE_CURVE('',#66,#64,#402,.T.);
#402 = CIRCLE('',#403,8.15);
#403 = AXIS2_PLACEMENT_3D('',#404,#405,#406);
#404 = CARTESIAN_POINT('',(5.699999999998E-14,1.545679691895E-28,
    -1.2612E-13));
#405 = DIRECTION('',(1.589826081886E-13,-1.22556271162E-15,1.));
#406 = DIRECTION('',(-0.997040666865,7.687593003116E-02,
    1.586063419615E-13));
#407 = PLANE('',#408);
#408 = AXIS2_PLACEMENT_3D('',#409,#410,#411);
#409 = CARTESIAN_POINT('',(0.615007440249,7.976325334917,-8.8E-14));
#410 = DIRECTION('',(1.589826081886E-13,-1.22556271162E-15,1.));
#411 = DIRECTION('',(0.997040666865,-7.687593003116E-02,
    -1.586063419615E-13));
#412 = ADVANCED_FACE('',(#413),#419,.F.);
#413 = FACE_BOUND('',#414,.F.);
#414 = EDGE_LOOP('',(#415,#416,#417,#418));
#415 = ORIENTED_EDGE('',*,*,#401,.F.);
#416 = ORIENTED_EDGE('',*,*,#81,.T.);
#417 = ORIENTED_EDGE('',*,*,#95,.T.);
#418 = ORIENTED_EDGE('',*,*,#74,.F.);
#419 = CONICAL_SURFACE('',#420,8.075,0.785398163397);
#420 = AXIS2_PLACEMENT_3D('',#421,#422,#423);
#421 = CARTESIAN_POINT('',(4.507630438584E-14,9.191720337162E-17,
    -7.500000000012E-02));
#422 = DIRECTION('',(1.589826081886E-13,-1.22556271162E-15,1.));
#423 = DIRECTION('',(0.997040666865,-7.687593003116E-02,
    -1.586063419615E-13));
#424 = ADVANCED_FACE('',(#425),#444,.T.);
#425 = FACE_BOUND('',#426,.T.);
#426 = EDGE_LOOP('',(#427,#436,#442,#443));
#427 = ORIENTED_EDGE('',*,*,#428,.F.);
#428 = EDGE_CURVE('',#429,#429,#431,.T.);
#429 = VERTEX_POINT('',#430);
#430 = CARTESIAN_POINT('',(17.448710190464,-1.34536721351,
    -1.000000000003));
#431 = CIRCLE('',#432,17.5005);
#432 = AXIS2_PLACEMENT_3D('',#433,#434,#435);
#433 = CARTESIAN_POINT('',(-1.019826081886E-13,1.22556271162E-15,-1.));
#434 = DIRECTION('',(1.589826081886E-13,-1.22556271162E-15,1.));
#435 = DIRECTION('',(0.997040666865,-7.687593003116E-02,
    -1.586063419615E-13));
#436 = ORIENTED_EDGE('',*,*,#437,.F.);
#437 = EDGE_CURVE('',#120,#429,#438,.T.);
#438 = LINE('',#439,#440);
#439 = CARTESIAN_POINT('',(17.448710190464,-1.34536721351,
    -1.000100000003));
#440 = VECTOR('',#441,1.);
#441 = DIRECTION('',(1.589826081886E-13,-1.22556271162E-15,1.));
#442 = ORIENTED_EDGE('',*,*,#119,.T.);
#443 = ORIENTED_EDGE('',*,*,#437,.T.);
#444 = CYLINDRICAL_SURFACE('',#445,17.5005);
#445 = AXIS2_PLACEMENT_3D('',#446,#447,#448);
#446 = CARTESIAN_POINT('',(-1.019985064494E-13,1.225685267891E-15,
    -1.0001));
#447 = DIRECTION('',(1.589826081886E-13,-1.22556271162E-15,1.));
#448 = DIRECTION('',(0.997040666865,-7.687593003116E-02,
    -1.586063419615E-13));
#449 = ADVANCED_FACE('',(#450),#466,.F.);
#450 = FACE_BOUND('',#451,.F.);
#451 = EDGE_LOOP('',(#452,#453,#459,#460));
#452 = ORIENTED_EDGE('',*,*,#360,.F.);
#453 = ORIENTED_EDGE('',*,*,#454,.F.);
#454 = EDGE_CURVE('',#131,#361,#455,.T.);
#455 = LINE('',#456,#457);
#456 = CARTESIAN_POINT('',(-8.038201069456,-13.19546123566,
    -4.999999999999));
#457 = VECTOR('',#458,1.);
#458 = DIRECTION('',(1.562788817294E-13,-3.629148296525E-14,1.));
#459 = ORIENTED_EDGE('',*,*,#130,.T.);
#460 = ORIENTED_EDGE('',*,*,#461,.T.);
#461 = EDGE_CURVE('',#133,#363,#462,.T.);
#462 = LINE('',#463,#464);
#463 = CARTESIAN_POINT('',(-7.784510500353,-9.905227035006,
    -4.999999999999));
#464 = VECTOR('',#465,1.);
#465 = DIRECTION('',(1.616863346478E-13,3.384035754201E-14,1.));
#466 = CYLINDRICAL_SURFACE('',#467,1.65);
#467 = AXIS2_PLACEMENT_3D('',#468,#469,#470);
#468 = CARTESIAN_POINT('',(-7.911355784905,-11.55034413533,
    -6.290991022464));
#469 = DIRECTION('',(1.589826081886E-13,-1.22556271162E-15,1.));
#470 = DIRECTION('',(-7.687593003116E-02,-0.997040666865,1.1E-14));
#471 = ADVANCED_FACE('',(#472),#478,.F.);
#472 = FACE_BOUND('',#473,.F.);
#473 = EDGE_LOOP('',(#474,#475,#476,#477));
#474 = ORIENTED_EDGE('',*,*,#371,.F.);
#475 = ORIENTED_EDGE('',*,*,#461,.F.);
#476 = ORIENTED_EDGE('',*,*,#141,.T.);
#477 = ORIENTED_EDGE('',*,*,#454,.T.);
#478 = CYLINDRICAL_SURFACE('',#479,1.65);
#479 = AXIS2_PLACEMENT_3D('',#480,#481,#482);
#480 = CARTESIAN_POINT('',(-7.911355784905,-11.55034413533,
    -6.290991022464));
#481 = DIRECTION('',(1.589826081886E-13,-1.22556271162E-15,1.));
#482 = DIRECTION('',(-7.687593003116E-02,-0.997040666865,1.1E-14));
#483 = ADVANCED_FACE('',(#484),#500,.F.);
#484 = FACE_BOUND('',#485,.F.);
#485 = EDGE_LOOP('',(#486,#487,#493,#494));
#486 = ORIENTED_EDGE('',*,*,#340,.F.);
#487 = ORIENTED_EDGE('',*,*,#488,.F.);
#488 = EDGE_CURVE('',#151,#341,#489,.T.);
#489 = LINE('',#490,#491);
#490 = CARTESIAN_POINT('',(5.920368266649,-14.27172425609,
    -5.000000000001));
#491 = VECTOR('',#492,1.);
#492 = DIRECTION('',(1.562788817294E-13,-3.629148296525E-14,1.));
#493 = ORIENTED_EDGE('',*,*,#150,.T.);
#494 = ORIENTED_EDGE('',*,*,#495,.T.);
#495 = EDGE_CURVE('',#153,#343,#496,.T.);
#496 = LINE('',#497,#498);
#497 = CARTESIAN_POINT('',(6.174058835752,-10.98149005544,
    -5.000000000001));
#498 = VECTOR('',#499,1.);
#499 = DIRECTION('',(1.616863346478E-13,3.384035754201E-14,1.));
#500 = CYLINDRICAL_SURFACE('',#501,1.65);
#501 = AXIS2_PLACEMENT_3D('',#502,#503,#504);
#502 = CARTESIAN_POINT('',(6.0472135512,-12.62660715576,-6.290991022466)
  );
#503 = DIRECTION('',(1.589826081886E-13,-1.22556271162E-15,1.));
#504 = DIRECTION('',(-7.687593003116E-02,-0.997040666865,1.1E-14));
#505 = ADVANCED_FACE('',(#506),#512,.F.);
#506 = FACE_BOUND('',#507,.F.);
#507 = EDGE_LOOP('',(#508,#509,#510,#511));
#508 = ORIENTED_EDGE('',*,*,#351,.F.);
#509 = ORIENTED_EDGE('',*,*,#495,.F.);
#510 = ORIENTED_EDGE('',*,*,#161,.T.);
#511 = ORIENTED_EDGE('',*,*,#488,.T.);
#512 = CYLINDRICAL_SURFACE('',#513,1.65);
#513 = AXIS2_PLACEMENT_3D('',#514,#515,#516);
#514 = CARTESIAN_POINT('',(6.0472135512,-12.62660715576,-6.290991022466)
  );
#515 = DIRECTION('',(1.589826081886E-13,-1.22556271162E-15,1.));
#516 = DIRECTION('',(-7.687593003116E-02,-0.997040666865,1.1E-14));
#517 = ADVANCED_FACE('',(#518),#534,.F.);
#518 = FACE_BOUND('',#519,.F.);
#519 = EDGE_LOOP('',(#520,#521,#527,#528));
#520 = ORIENTED_EDGE('',*,*,#380,.F.);
#521 = ORIENTED_EDGE('',*,*,#522,.F.);
#522 = EDGE_CURVE('',#171,#381,#523,.T.);
#523 = LINE('',#524,#525);
#524 = CARTESIAN_POINT('',(-14.08541462065,-0.56885407989,
    -4.999999999998));
#525 = VECTOR('',#526,1.);
#526 = DIRECTION('',(1.562719628957E-13,-3.638121662527E-14,1.));
#527 = ORIENTED_EDGE('',*,*,#170,.T.);
#528 = ORIENTED_EDGE('',*,*,#529,.T.);
#529 = EDGE_CURVE('',#173,#383,#530,.T.);
#530 = LINE('',#531,#532);
#531 = CARTESIAN_POINT('',(-13.83172405155,2.721380120763,
    -4.999999999998));
#532 = VECTOR('',#533,1.);
#533 = DIRECTION('',(1.616932534815E-13,3.393009120203E-14,1.));
#534 = CYLINDRICAL_SURFACE('',#535,1.65);
#535 = AXIS2_PLACEMENT_3D('',#536,#537,#538);
#536 = CARTESIAN_POINT('',(-13.9585693361,1.076263020436,-6.290991022463
    ));
#537 = DIRECTION('',(1.589826081886E-13,-1.22556271162E-15,1.));
#538 = DIRECTION('',(-7.687593003116E-02,-0.997040666865,1.1E-14));
#539 = ADVANCED_FACE('',(#540),#546,.F.);
#540 = FACE_BOUND('',#541,.F.);
#541 = EDGE_LOOP('',(#542,#543,#544,#545));
#542 = ORIENTED_EDGE('',*,*,#391,.F.);
#543 = ORIENTED_EDGE('',*,*,#529,.F.);
#544 = ORIENTED_EDGE('',*,*,#181,.T.);
#545 = ORIENTED_EDGE('',*,*,#522,.T.);
#546 = CYLINDRICAL_SURFACE('',#547,1.65);
#547 = AXIS2_PLACEMENT_3D('',#548,#549,#550);
#548 = CARTESIAN_POINT('',(-13.9585693361,1.076263020436,-6.290991022463
    ));
#549 = DIRECTION('',(1.589826081886E-13,-1.22556271162E-15,1.));
#550 = DIRECTION('',(-7.687593003116E-02,-0.997040666865,1.1E-14));
#551 = ADVANCED_FACE('',(#552),#568,.F.);
#552 = FACE_BOUND('',#553,.F.);
#553 = EDGE_LOOP('',(#554,#555,#561,#562));
#554 = ORIENTED_EDGE('',*,*,#280,.F.);
#555 = ORIENTED_EDGE('',*,*,#556,.F.);
#556 = EDGE_CURVE('',#191,#281,#557,.T.);
#557 = LINE('',#558,#559);
#558 = CARTESIAN_POINT('',(-6.174058835753,10.981490055442,
    -4.999999999999));
#559 = VECTOR('',#560,1.);
#560 = DIRECTION('',(1.562788817294E-13,-3.629148296525E-14,1.));
#561 = ORIENTED_EDGE('',*,*,#190,.T.);
#562 = ORIENTED_EDGE('',*,*,#563,.T.);
#563 = EDGE_CURVE('',#193,#283,#564,.T.);
#564 = LINE('',#565,#566);
#565 = CARTESIAN_POINT('',(-5.92036826665,14.271724256096,
    -4.999999999999));
#566 = VECTOR('',#567,1.);
#567 = DIRECTION('',(1.616863346478E-13,3.384035754201E-14,1.));
#568 = CYLINDRICAL_SURFACE('',#569,1.65);
#569 = AXIS2_PLACEMENT_3D('',#570,#571,#572);
#570 = CARTESIAN_POINT('',(-6.047213551202,12.626607155769,
    -6.290991022464));
#571 = DIRECTION('',(1.589826081886E-13,-1.22556271162E-15,1.));
#572 = DIRECTION('',(-7.687593003116E-02,-0.997040666865,1.1E-14));
#573 = ADVANCED_FACE('',(#574),#580,.F.);
#574 = FACE_BOUND('',#575,.F.);
#575 = EDGE_LOOP('',(#576,#577,#578,#579));
#576 = ORIENTED_EDGE('',*,*,#291,.F.);
#577 = ORIENTED_EDGE('',*,*,#563,.F.);
#578 = ORIENTED_EDGE('',*,*,#201,.T.);
#579 = ORIENTED_EDGE('',*,*,#556,.T.);
#580 = CYLINDRICAL_SURFACE('',#581,1.65);
#581 = AXIS2_PLACEMENT_3D('',#582,#583,#584);
#582 = CARTESIAN_POINT('',(-6.047213551202,12.626607155769,
    -6.290991022464));
#583 = DIRECTION('',(1.589826081886E-13,-1.22556271162E-15,1.));
#584 = DIRECTION('',(-7.687593003116E-02,-0.997040666865,1.1E-14));
#585 = ADVANCED_FACE('',(#586),#602,.F.);
#586 = FACE_BOUND('',#587,.F.);
#587 = EDGE_LOOP('',(#588,#589,#595,#596));
#588 = ORIENTED_EDGE('',*,*,#320,.F.);
#589 = ORIENTED_EDGE('',*,*,#590,.F.);
#590 = EDGE_CURVE('',#215,#321,#591,.T.);
#591 = LINE('',#592,#593);
#592 = CARTESIAN_POINT('',(13.831724051553,-2.721380120763,
    -5.000000000002));
#593 = VECTOR('',#594,1.);
#594 = DIRECTION('',(1.562719628957E-13,-3.638121662527E-14,1.));
#595 = ORIENTED_EDGE('',*,*,#214,.T.);
#596 = ORIENTED_EDGE('',*,*,#597,.T.);
#597 = EDGE_CURVE('',#217,#323,#598,.T.);
#598 = LINE('',#599,#600);
#599 = CARTESIAN_POINT('',(14.085414620655,0.56885407989,-5.000000000002
    ));
#600 = VECTOR('',#601,1.);
#601 = DIRECTION('',(1.616932534815E-13,3.393009120203E-14,1.));
#602 = CYLINDRICAL_SURFACE('',#603,1.65);
#603 = AXIS2_PLACEMENT_3D('',#604,#605,#606);
#604 = CARTESIAN_POINT('',(13.958569336104,-1.076263020436,
    -6.290991022467));
#605 = DIRECTION('',(1.589826081886E-13,-1.22556271162E-15,1.));
#606 = DIRECTION('',(-7.687593003116E-02,-0.997040666865,1.1E-14));
#607 = ADVANCED_FACE('',(#608),#614,.F.);
#608 = FACE_BOUND('',#609,.F.);
#609 = EDGE_LOOP('',(#610,#611,#612,#613));
#610 = ORIENTED_EDGE('',*,*,#331,.F.);
#611 = ORIENTED_EDGE('',*,*,#597,.F.);
#612 = ORIENTED_EDGE('',*,*,#225,.T.);
#613 = ORIENTED_EDGE('',*,*,#590,.T.);
#614 = CYLINDRICAL_SURFACE('',#615,1.65);
#615 = AXIS2_PLACEMENT_3D('',#616,#617,#618);
#616 = CARTESIAN_POINT('',(13.958569336104,-1.076263020436,
    -6.290991022467));
#617 = DIRECTION('',(1.589826081886E-13,-1.22556271162E-15,1.));
#618 = DIRECTION('',(-7.687593003116E-02,-0.997040666865,1.1E-14));
#619 = ADVANCED_FACE('',(#620),#636,.F.);
#620 = FACE_BOUND('',#621,.F.);
#621 = EDGE_LOOP('',(#622,#623,#629,#630));
#622 = ORIENTED_EDGE('',*,*,#300,.F.);
#623 = ORIENTED_EDGE('',*,*,#624,.F.);
#624 = EDGE_CURVE('',#235,#301,#625,.T.);
#625 = LINE('',#626,#627);
#626 = CARTESIAN_POINT('',(7.784510500352,9.905227035006,-5.000000000001
    ));
#627 = VECTOR('',#628,1.);
#628 = DIRECTION('',(1.562788817294E-13,-3.629148296525E-14,1.));
#629 = ORIENTED_EDGE('',*,*,#234,.T.);
#630 = ORIENTED_EDGE('',*,*,#631,.T.);
#631 = EDGE_CURVE('',#237,#303,#632,.T.);
#632 = LINE('',#633,#634);
#633 = CARTESIAN_POINT('',(8.038201069454,13.19546123566,-5.000000000001
    ));
#634 = VECTOR('',#635,1.);
#635 = DIRECTION('',(1.616863346478E-13,3.384035754201E-14,1.));
#636 = CYLINDRICAL_SURFACE('',#637,1.65);
#637 = AXIS2_PLACEMENT_3D('',#638,#639,#640);
#638 = CARTESIAN_POINT('',(7.911355784903,11.550344135333,
    -6.290991022466));
#639 = DIRECTION('',(1.589826081886E-13,-1.22556271162E-15,1.));
#640 = DIRECTION('',(-7.687593003116E-02,-0.997040666865,1.1E-14));
#641 = ADVANCED_FACE('',(#642),#648,.F.);
#642 = FACE_BOUND('',#643,.F.);
#643 = EDGE_LOOP('',(#644,#645,#646,#647));
#644 = ORIENTED_EDGE('',*,*,#311,.F.);
#645 = ORIENTED_EDGE('',*,*,#631,.F.);
#646 = ORIENTED_EDGE('',*,*,#245,.T.);
#647 = ORIENTED_EDGE('',*,*,#624,.T.);
#648 = CYLINDRICAL_SURFACE('',#649,1.65);
#649 = AXIS2_PLACEMENT_3D('',#650,#651,#652);
#650 = CARTESIAN_POINT('',(7.911355784903,11.550344135333,
    -6.290991022466));
#651 = DIRECTION('',(1.589826081886E-13,-1.22556271162E-15,1.));
#652 = DIRECTION('',(-7.687593003116E-02,-0.997040666865,1.1E-14));
#653 = ADVANCED_FACE('',(#654),#680,.T.);
#654 = FACE_BOUND('',#655,.T.);
#655 = EDGE_LOOP('',(#656,#664,#673,#679));
#656 = ORIENTED_EDGE('',*,*,#657,.T.);
#657 = EDGE_CURVE('',#263,#658,#660,.T.);
#658 = VERTEX_POINT('',#659);
#659 = CARTESIAN_POINT('',(17.448211670131,-1.345328775545,
    -0.150000000002));
#660 = LINE('',#661,#662);
#661 = CARTESIAN_POINT('',(17.298655570101,-1.33379738604,
    -2.375230033032E-12));
#662 = VECTOR('',#663,1.);
#663 = DIRECTION('',(0.705014216659,-5.435949143533E-02,-0.707106781186)
  );
#664 = ORIENTED_EDGE('',*,*,#665,.F.);
#665 = EDGE_CURVE('',#666,#658,#668,.T.);
#666 = VERTEX_POINT('',#667);
#667 = CARTESIAN_POINT('',(-17.44821167038,1.345328772255,
    -0.149999999997));
#668 = CIRCLE('',#669,17.5);
#669 = AXIS2_PLACEMENT_3D('',#670,#671,#672);
#670 = CARTESIAN_POINT('',(3.159048987357E-14,-2.007603194395E-14,
    -0.149999999999));
#671 = DIRECTION('',(-1.589826081886E-13,1.22556271162E-15,-1.));
#672 = DIRECTION('',(-0.997040666879,7.687592984317E-02,
    1.586063419636E-13));
#673 = ORIENTED_EDGE('',*,*,#674,.F.);
#674 = EDGE_CURVE('',#261,#666,#675,.T.);
#675 = LINE('',#676,#677);
#676 = CARTESIAN_POINT('',(-17.29865557033,1.333797383038,
    3.128410033065E-12));
#677 = VECTOR('',#678,1.);
#678 = DIRECTION('',(-0.705014216991,5.435948712765E-02,-0.707106781186)
  );
#679 = ORIENTED_EDGE('',*,*,#260,.T.);
#680 = CONICAL_SURFACE('',#681,17.425,0.785398163397);
#681 = AXIS2_PLACEMENT_3D('',#682,#683,#684);
#682 = CARTESIAN_POINT('',(4.351418548772E-14,-2.016794914732E-14,
    -7.499999999941E-02));
#683 = DIRECTION('',(-1.589826081886E-13,1.22556271162E-15,-1.));
#684 = DIRECTION('',(0.997040666865,-7.687593003116E-02,
    -1.586063419615E-13));
#685 = ADVANCED_FACE('',(#686),#698,.T.);
#686 = FACE_BOUND('',#687,.T.);
#687 = EDGE_LOOP('',(#688,#689,#696,#697));
#688 = ORIENTED_EDGE('',*,*,#674,.T.);
#689 = ORIENTED_EDGE('',*,*,#690,.F.);
#690 = EDGE_CURVE('',#658,#666,#691,.T.);
#691 = CIRCLE('',#692,17.5);
#692 = AXIS2_PLACEMENT_3D('',#693,#694,#695);
#693 = CARTESIAN_POINT('',(5.064726416896E-14,2.270803789651E-13,-0.15)
  );
#694 = DIRECTION('',(-1.589826081886E-13,1.22556271162E-15,-1.));
#695 = DIRECTION('',(0.997040666865,-7.687593003117E-02,
    -1.586063419615E-13));
#696 = ORIENTED_EDGE('',*,*,#657,.F.);
#697 = ORIENTED_EDGE('',*,*,#271,.T.);
#698 = CONICAL_SURFACE('',#699,17.425,0.785398163397);
#699 = AXIS2_PLACEMENT_3D('',#700,#701,#702);
#700 = CARTESIAN_POINT('',(6.257095978312E-14,2.269884617618E-13,
    -7.499999999951E-02));
#701 = DIRECTION('',(-1.589826081886E-13,1.22556271162E-15,-1.));
#702 = DIRECTION('',(0.997040666865,-7.687593003116E-02,
    -1.586063419615E-13));
#703 = ADVANCED_FACE('',(#704,#707),#727,.T.);
#704 = FACE_BOUND('',#705,.T.);
#705 = EDGE_LOOP('',(#706));
#706 = ORIENTED_EDGE('',*,*,#428,.T.);
#707 = FACE_BOUND('',#708,.T.);
#708 = EDGE_LOOP('',(#709,#720));
#709 = ORIENTED_EDGE('',*,*,#710,.F.);
#710 = EDGE_CURVE('',#711,#713,#715,.T.);
#711 = VERTEX_POINT('',#712);
#712 = CARTESIAN_POINT('',(17.448211670131,-1.345328775545,
    -1.000000000003));
#713 = VERTEX_POINT('',#714);
#714 = CARTESIAN_POINT('',(-17.44821167013,1.345328775545,
    -0.999999999997));
#715 = CIRCLE('',#716,17.5);
#716 = AXIS2_PLACEMENT_3D('',#717,#718,#719);
#717 = CARTESIAN_POINT('',(-1.019826081886E-13,1.22556271162E-15,-1.));
#718 = DIRECTION('',(1.589826081886E-13,-1.22556271162E-15,1.));
#719 = DIRECTION('',(0.997040666865,-7.687593003116E-02,
    -1.586063419615E-13));
#720 = ORIENTED_EDGE('',*,*,#721,.F.);
#721 = EDGE_CURVE('',#713,#711,#722,.T.);
#722 = CIRCLE('',#723,17.5);
#723 = AXIS2_PLACEMENT_3D('',#724,#725,#726);
#724 = CARTESIAN_POINT('',(-1.019826081886E-13,1.22556271162E-15,-1.));
#725 = DIRECTION('',(1.589826081886E-13,-1.22556271162E-15,1.));
#726 = DIRECTION('',(-0.997040666865,7.687593003116E-02,
    1.586063419615E-13));
#727 = PLANE('',#728);
#728 = AXIS2_PLACEMENT_3D('',#729,#730,#731);
#729 = CARTESIAN_POINT('',(1.345328775545,17.448211670131,-1.));
#730 = DIRECTION('',(1.589826081886E-13,-1.22556271162E-15,1.));
#731 = DIRECTION('',(0.997040666865,-7.687593003116E-02,
    -1.586063419615E-13));
#732 = ADVANCED_FACE('',(#733),#749,.T.);
#733 = FACE_BOUND('',#734,.T.);
#734 = EDGE_LOOP('',(#735,#741,#742,#748));
#735 = ORIENTED_EDGE('',*,*,#736,.T.);
#736 = EDGE_CURVE('',#658,#711,#737,.T.);
#737 = LINE('',#738,#739);
#738 = CARTESIAN_POINT('',(17.448211670131,-1.345328775545,
    -0.150000000002));
#739 = VECTOR('',#740,1.);
#740 = DIRECTION('',(-1.76407863951E-13,-6.165092702513E-14,-1.));
#741 = ORIENTED_EDGE('',*,*,#710,.T.);
#742 = ORIENTED_EDGE('',*,*,#743,.F.);
#743 = EDGE_CURVE('',#666,#713,#744,.T.);
#744 = LINE('',#745,#746);
#745 = CARTESIAN_POINT('',(-17.44821167043,1.345328771629,
    -0.149999999997));
#746 = VECTOR('',#747,1.);
#747 = DIRECTION('',(1.561547653048E-10,2.027145786886E-09,-1.));
#748 = ORIENTED_EDGE('',*,*,#665,.T.);
#749 = CYLINDRICAL_SURFACE('',#750,17.5);
#750 = AXIS2_PLACEMENT_3D('',#751,#752,#753);
#751 = CARTESIAN_POINT('',(5.7E-14,0.,0.));
#752 = DIRECTION('',(1.589826081886E-13,-1.22556271162E-15,1.));
#753 = DIRECTION('',(0.997040666865,-7.687593003116E-02,
    -1.586063419615E-13));
#754 = ADVANCED_FACE('',(#755),#761,.T.);
#755 = FACE_BOUND('',#756,.T.);
#756 = EDGE_LOOP('',(#757,#758,#759,#760));
#757 = ORIENTED_EDGE('',*,*,#743,.T.);
#758 = ORIENTED_EDGE('',*,*,#721,.T.);
#759 = ORIENTED_EDGE('',*,*,#736,.F.);
#760 = ORIENTED_EDGE('',*,*,#690,.T.);
#761 = CYLINDRICAL_SURFACE('',#762,17.5);
#762 = AXIS2_PLACEMENT_3D('',#763,#764,#765);
#763 = CARTESIAN_POINT('',(5.7E-14,0.,0.));
#764 = DIRECTION('',(1.589826081886E-13,-1.22556271162E-15,1.));
#765 = DIRECTION('',(0.997040666865,-7.687593003116E-02,
    -1.586063419615E-13));
#766 = ( GEOMETRIC_REPRESENTATION_CONTEXT(3) 
GLOBAL_UNCERTAINTY_ASSIGNED_CONTEXT((#770)) GLOBAL_UNIT_ASSIGNED_CONTEXT
((#767,#768,#769)) REPRESENTATION_CONTEXT('Context #1',
  '3D Context with UNIT and UNCERTAINTY') );
#767 = ( LENGTH_UNIT() NAMED_UNIT(*) SI_UNIT(.MILLI.,.METRE.) );
#768 = ( NAMED_UNIT(*) PLANE_ANGLE_UNIT() SI_UNIT($,.RADIAN.) );
#769 = ( NAMED_UNIT(*) SI_UNIT($,.STERADIAN.) SOLID_ANGLE_UNIT() );
#770 = UNCERTAINTY_MEASURE_WITH_UNIT(LENGTH_MEASURE(1.E-07),#767,
  'distance_accuracy_value','confusion accuracy');
#771 = PRODUCT_RELATED_PRODUCT_CATEGORY('part',$,(#7));
ENDSEC;
END-ISO-10303-21;
